<svg width="16" height="16" viewBox="0 0 16 16" fill="none" xmlns="http://www.w3.org/2000/svg">
<path d="M8.20697 14.8119C11.9736 14.8119 15.0269 11.7585 15.0269 7.99188C15.0269 4.22529 11.9736 1.17188 8.20697 1.17188C4.44039 1.17188 1.38696 4.22529 1.38696 7.99188C1.38696 11.7585 4.44039 14.8119 8.20697 14.8119Z" stroke="#4FF8CA" stroke-linecap="round" stroke-linejoin="round"/>
<mask id="path-2-inside-1_18_910" fill="white">
<path d="M11.207 5.01196C11.287 5.01196 11.327 5.02196 11.327 5.02196C11.627 5.77196 11.4469 6.31196 11.3969 6.45196C11.7369 6.82196 11.9469 7.31196 11.9469 7.90196C11.9469 9.99196 10.6569 10.432 9.44695 10.582C9.64695 10.752 9.80693 11.082 9.80693 11.582V14.272C9.37694 14.362 8.92695 14.422 8.47695 14.422C8.02695 14.422 7.56695 14.372 7.13695 14.272V12.162C6.92695 12.212 6.73695 12.222 6.57695 12.222C5.52695 12.222 5.28695 11.442 5.28695 11.442C5.04695 10.812 4.67693 10.652 4.67693 10.652C4.20693 10.332 4.65694 10.322 4.71694 10.322C5.25694 10.352 5.54696 10.872 5.54696 10.872C5.81696 11.332 6.18695 11.462 6.50695 11.462C6.76695 11.462 7.00693 11.382 7.14693 11.322C7.20693 10.972 7.34694 10.712 7.49694 10.582C6.28694 10.442 4.99694 10.002 4.99694 7.90196C4.99694 7.30196 5.20696 6.82196 5.54696 6.45196C5.48696 6.31196 5.31693 5.77196 5.61693 5.02196C5.61693 5.02196 5.65696 5.01196 5.73696 5.01196C5.92696 5.01196 6.36695 5.08196 7.10695 5.57196C7.53695 5.45196 8.01696 5.37196 8.48696 5.37196C8.95696 5.37196 9.42693 5.45196 9.86693 5.57196C10.5969 5.08196 11.0369 5.01196 11.2269 5.01196M11.2269 4.01196C10.7769 4.01196 10.2669 4.18196 9.69695 4.50196C9.28695 4.42196 8.87694 4.37196 8.49694 4.37196C8.11694 4.37196 7.69695 4.41196 7.28695 4.50196C6.71695 4.17196 6.19694 4.01196 5.74694 4.01196C5.54694 4.01196 5.40694 4.04196 5.31694 4.07196C5.03694 4.16196 4.80695 4.38196 4.69695 4.65196C4.44695 5.28196 4.42696 5.82196 4.48696 6.22196C4.17696 6.72196 4.01696 7.29196 4.01696 7.90196C4.01696 8.46196 4.09694 8.96196 4.24694 9.39196C3.85694 9.53196 3.62695 9.82196 3.53695 10.102C3.46695 10.342 3.37694 10.952 4.12694 11.472C4.14694 11.492 4.17695 11.502 4.19695 11.522C4.21695 11.542 4.28695 11.622 4.35695 11.792C4.52695 12.282 5.07693 13.032 6.14693 13.202V14.282C6.14693 14.752 6.47694 15.152 6.93694 15.252C7.45694 15.362 7.97696 15.422 8.48696 15.422C8.99696 15.422 9.51694 15.362 10.0269 15.252C10.4869 15.152 10.8169 14.742 10.8169 14.282V11.592C10.8169 11.492 10.8169 11.392 10.8169 11.302C12.2469 10.782 12.9669 9.64196 12.9669 7.91196C12.9669 7.29196 12.8069 6.72196 12.4969 6.23196C12.5469 5.83196 12.5269 5.28196 12.2869 4.66196C12.1769 4.38196 11.947 4.17196 11.667 4.08196C11.577 4.05196 11.437 4.02196 11.237 4.02196L11.2269 4.01196Z"/>
</mask>
<path d="M11.207 5.01196C11.287 5.01196 11.327 5.02196 11.327 5.02196C11.627 5.77196 11.4469 6.31196 11.3969 6.45196C11.7369 6.82196 11.9469 7.31196 11.9469 7.90196C11.9469 9.99196 10.6569 10.432 9.44695 10.582C9.64695 10.752 9.80693 11.082 9.80693 11.582V14.272C9.37694 14.362 8.92695 14.422 8.47695 14.422C8.02695 14.422 7.56695 14.372 7.13695 14.272V12.162C6.92695 12.212 6.73695 12.222 6.57695 12.222C5.52695 12.222 5.28695 11.442 5.28695 11.442C5.04695 10.812 4.67693 10.652 4.67693 10.652C4.20693 10.332 4.65694 10.322 4.71694 10.322C5.25694 10.352 5.54696 10.872 5.54696 10.872C5.81696 11.332 6.18695 11.462 6.50695 11.462C6.76695 11.462 7.00693 11.382 7.14693 11.322C7.20693 10.972 7.34694 10.712 7.49694 10.582C6.28694 10.442 4.99694 10.002 4.99694 7.90196C4.99694 7.30196 5.20696 6.82196 5.54696 6.45196C5.48696 6.31196 5.31693 5.77196 5.61693 5.02196C5.61693 5.02196 5.65696 5.01196 5.73696 5.01196C5.92696 5.01196 6.36695 5.08196 7.10695 5.57196C7.53695 5.45196 8.01696 5.37196 8.48696 5.37196C8.95696 5.37196 9.42693 5.45196 9.86693 5.57196C10.5969 5.08196 11.0369 5.01196 11.2269 5.01196M11.2269 4.01196C10.7769 4.01196 10.2669 4.18196 9.69695 4.50196C9.28695 4.42196 8.87694 4.37196 8.49694 4.37196C8.11694 4.37196 7.69695 4.41196 7.28695 4.50196C6.71695 4.17196 6.19694 4.01196 5.74694 4.01196C5.54694 4.01196 5.40694 4.04196 5.31694 4.07196C5.03694 4.16196 4.80695 4.38196 4.69695 4.65196C4.44695 5.28196 4.42696 5.82196 4.48696 6.22196C4.17696 6.72196 4.01696 7.29196 4.01696 7.90196C4.01696 8.46196 4.09694 8.96196 4.24694 9.39196C3.85694 9.53196 3.62695 9.82196 3.53695 10.102C3.46695 10.342 3.37694 10.952 4.12694 11.472C4.14694 11.492 4.17695 11.502 4.19695 11.522C4.21695 11.542 4.28695 11.622 4.35695 11.792C4.52695 12.282 5.07693 13.032 6.14693 13.202V14.282C6.14693 14.752 6.47694 15.152 6.93694 15.252C7.45694 15.362 7.97696 15.422 8.48696 15.422C8.99696 15.422 9.51694 15.362 10.0269 15.252C10.4869 15.152 10.8169 14.742 10.8169 14.282V11.592C10.8169 11.492 10.8169 11.392 10.8169 11.302C12.2469 10.782 12.9669 9.64196 12.9669 7.91196C12.9669 7.29196 12.8069 6.72196 12.4969 6.23196C12.5469 5.83196 12.5269 5.28196 12.2869 4.66196C12.1769 4.38196 11.947 4.17196 11.667 4.08196C11.577 4.05196 11.437 4.02196 11.237 4.02196L11.2269 4.01196Z" fill="#231F20"/>
<path d="M11.327 5.02196L12.2554 4.65057L12.0655 4.17584L11.5695 4.05183L11.327 5.02196ZM11.3969 6.45196L10.4552 6.11563L10.2522 6.68411L10.6606 7.12859L11.3969 6.45196ZM9.44695 10.582L9.32392 9.58956L7.06484 9.86961L8.7993 11.3439L9.44695 10.582ZM9.80693 14.272L10.0118 15.2508L10.8069 15.0843V14.272H9.80693ZM7.13695 14.272H6.13695V15.0661L6.91044 15.246L7.13695 14.272ZM7.13695 12.162H8.13695V10.8959L6.90533 11.1892L7.13695 12.162ZM5.28695 11.442L6.24272 11.1479L6.23309 11.1166L6.22143 11.086L5.28695 11.442ZM4.67693 10.652L4.11414 11.4786L4.19275 11.5321L4.28003 11.5698L4.67693 10.652ZM4.71694 10.322L4.77241 9.3235L4.74469 9.32196H4.71694V10.322ZM5.54696 10.872L4.6736 11.3591L4.67897 11.3687L4.68454 11.3782L5.54696 10.872ZM7.14693 11.322L7.54085 12.2411L8.04067 12.0269L8.13255 11.4909L7.14693 11.322ZM7.49694 10.582L8.15187 11.3377L9.86872 9.84971L7.61187 9.58859L7.49694 10.582ZM5.54696 6.45196L6.28328 7.12859L6.72084 6.65243L6.4661 6.05804L5.54696 6.45196ZM5.61693 5.02196L5.37455 4.05178L4.87839 4.17574L4.68846 4.65057L5.61693 5.02196ZM7.10695 5.57196L6.55486 6.40574L6.93574 6.65795L7.37575 6.53516L7.10695 5.57196ZM9.86693 5.57196L9.60382 6.53673L10.0448 6.65699L10.4243 6.40226L9.86693 5.57196ZM11.2269 4.01196L11.9337 3.30451L11.6409 3.01196H11.2269V4.01196ZM9.69695 4.50196L9.50544 5.48345L9.86608 5.55382L10.1865 5.37395L9.69695 4.50196ZM7.28695 4.50196L6.78591 5.36739L7.12202 5.56198L7.50135 5.47871L7.28695 4.50196ZM5.31694 4.07196L5.62297 5.02405L5.63317 5.02065L5.31694 4.07196ZM4.69695 4.65196L3.77082 4.27465L3.76746 4.28312L4.69695 4.65196ZM4.48696 6.22196L5.33686 6.7489L5.53037 6.43679L5.47589 6.07362L4.48696 6.22196ZM4.24694 9.39196L4.5848 10.3332L5.51756 9.99832L5.19114 9.06259L4.24694 9.39196ZM3.53695 10.102L2.58492 9.79595L2.58075 9.8089L2.57695 9.82196L3.53695 10.102ZM4.12694 11.472L4.83405 10.7649L4.77054 10.7013L4.69672 10.6502L4.12694 11.472ZM4.35695 11.792L5.30171 11.4642L5.29242 11.4374L5.28163 11.4112L4.35695 11.792ZM6.14693 13.202H7.14693V12.3483L6.30384 12.2144L6.14693 13.202ZM6.93694 15.252L6.72451 16.2292L6.72998 16.2303L6.93694 15.252ZM10.0269 15.252L10.2378 16.2295L10.2394 16.2291L10.0269 15.252ZM10.8169 11.302L10.4752 10.3622L9.81694 10.6015V11.302H10.8169ZM12.4969 6.23196L11.5047 6.10793L11.4602 6.46365L11.6519 6.7666L12.4969 6.23196ZM12.2869 4.66196L13.2195 4.30096L13.2177 4.29631L12.2869 4.66196ZM11.667 4.08196L11.3507 5.0307L11.3609 5.03399L11.667 4.08196ZM11.237 4.02196L10.5302 4.72941L10.823 5.02196H11.237V4.02196ZM11.207 6.01196C11.2052 6.01196 11.1937 6.01184 11.1729 6.00924C11.1625 6.00794 11.15 6.00604 11.1352 6.00327C11.1278 6.00188 11.1198 6.00028 11.1114 5.99843C11.1071 5.9975 11.1028 5.99652 11.0983 5.99546C11.096 5.99494 11.0937 5.99439 11.0914 5.99383C11.0903 5.99355 11.0891 5.99327 11.0879 5.99298C11.0874 5.99283 11.0868 5.99269 11.0862 5.99254C11.0859 5.99247 11.0856 5.9924 11.0853 5.99232C11.0851 5.99229 11.0849 5.99223 11.0848 5.99221C11.0846 5.99216 11.0844 5.9921 11.327 5.02196C11.5695 4.05183 11.5693 4.05177 11.5691 4.05171C11.569 4.0517 11.5688 4.05164 11.5686 4.0516C11.5683 4.05153 11.568 4.05145 11.5677 4.05138C11.5671 4.05123 11.5665 4.05108 11.5659 4.05093C11.5647 4.05063 11.5635 4.05034 11.5622 4.05004C11.5598 4.04944 11.5573 4.04884 11.5547 4.04824C11.5496 4.04704 11.5443 4.04584 11.5388 4.04464C11.5278 4.04224 11.5161 4.03985 11.5038 4.03753C11.479 4.03288 11.4514 4.02848 11.421 4.02469C11.3602 4.01708 11.2887 4.01196 11.207 4.01196V6.01196ZM10.3985 5.39335C10.49 5.62208 10.501 5.79752 10.4947 5.90994C10.4884 6.02348 10.4633 6.0928 10.4552 6.11563L12.3387 6.7883C12.4315 6.5285 12.6815 5.71584 12.2554 4.65057L10.3985 5.39335ZM10.6606 7.12859C10.8328 7.31596 10.9469 7.56516 10.9469 7.90196H12.9469C12.9469 7.05877 12.6411 6.32796 12.1333 5.77534L10.6606 7.12859ZM10.9469 7.90196C10.9469 8.72277 10.7061 9.04023 10.5151 9.19742C10.2697 9.39946 9.88472 9.52004 9.32392 9.58956L9.56997 11.5744C10.2192 11.4939 11.0842 11.3195 11.7863 10.7415C12.5428 10.1187 12.9469 9.17116 12.9469 7.90196H10.9469ZM8.7993 11.3439C8.71256 11.2702 8.80693 11.2808 8.80693 11.582H10.8069C10.8069 10.8832 10.5813 10.2338 10.0946 9.82002L8.7993 11.3439ZM8.80693 11.582V14.272H10.8069V11.582H8.80693ZM9.60207 13.2932C9.21943 13.3733 8.8403 13.422 8.47695 13.422V15.422C9.0136 15.422 9.53444 15.3507 10.0118 15.2508L9.60207 13.2932ZM8.47695 13.422C8.0983 13.422 7.71458 13.3796 7.36347 13.298L6.91044 15.246C7.41933 15.3643 7.95559 15.422 8.47695 15.422V13.422ZM8.13695 14.272V12.162H6.13695V14.272H8.13695ZM6.90533 11.1892C6.79915 11.2144 6.69415 11.222 6.57695 11.222V13.222C6.77976 13.222 7.05475 13.2095 7.36857 13.1348L6.90533 11.1892ZM6.57695 11.222C6.33247 11.222 6.26385 11.1437 6.25213 11.1318C6.23602 11.1153 6.22682 11.1 6.22367 11.0941C6.22237 11.0917 6.22345 11.0933 6.22655 11.101C6.22813 11.1049 6.2303 11.1106 6.233 11.1182C6.23435 11.122 6.23584 11.1264 6.23746 11.1313C6.23827 11.1338 6.23912 11.1364 6.23999 11.1391C6.24043 11.1405 6.24088 11.1419 6.24133 11.1434C6.24156 11.1441 6.24179 11.1449 6.24202 11.1456C6.24214 11.146 6.24231 11.1465 6.24237 11.1467C6.24255 11.1473 6.24272 11.1479 5.28695 11.442C4.33117 11.7361 4.33135 11.7366 4.33153 11.7372C4.33159 11.7374 4.33177 11.738 4.33189 11.7384C4.33214 11.7392 4.33239 11.74 4.33265 11.7408C4.33316 11.7425 4.3337 11.7442 4.33425 11.7459C4.33537 11.7494 4.33658 11.7531 4.33787 11.7571C4.34047 11.765 4.34343 11.7737 4.3468 11.7832C4.35352 11.8023 4.36188 11.8247 4.37207 11.85C4.3924 11.9003 4.42043 11.9629 4.45804 12.0336C4.5327 12.1739 4.64912 12.3536 4.82427 12.5322C5.19506 12.9102 5.77144 13.222 6.57695 13.222V11.222ZM6.22143 11.086C6.04871 10.6326 5.81413 10.3119 5.58796 10.0927C5.47647 9.98462 5.37071 9.90473 5.28131 9.84695C5.23668 9.81811 5.19622 9.79483 5.16125 9.77631C5.14376 9.76705 5.12762 9.75897 5.11301 9.75197C5.1057 9.74848 5.09877 9.74524 5.09223 9.74227C5.08896 9.74078 5.08579 9.73936 5.08273 9.738C5.08119 9.73732 5.07968 9.73665 5.0782 9.736C5.07746 9.73568 5.07672 9.73536 5.07599 9.73504C5.07563 9.73488 5.07509 9.73465 5.07491 9.73457C5.07437 9.73433 5.07383 9.7341 4.67693 10.652C4.28003 11.5698 4.2795 11.5696 4.27896 11.5694C4.27879 11.5693 4.27825 11.5691 4.2779 11.5689C4.27719 11.5686 4.27649 11.5683 4.2758 11.568C4.2744 11.5674 4.27303 11.5668 4.27167 11.5662C4.26896 11.565 4.26633 11.5638 4.26377 11.5626C4.25865 11.5603 4.25382 11.558 4.24928 11.5559C4.2402 11.5515 4.23225 11.5475 4.22535 11.5438C4.21155 11.5365 4.20187 11.5307 4.19568 11.5267C4.18316 11.5186 4.1849 11.5181 4.19592 11.5287C4.21475 11.547 4.28518 11.6213 4.35246 11.798L6.22143 11.086ZM5.23972 9.82536C5.2094 9.80472 5.21116 9.80303 5.22962 9.82055C5.24237 9.83265 5.3108 9.89801 5.3709 10.0182C5.43652 10.1495 5.50991 10.3877 5.4312 10.6729C5.35454 10.9507 5.17746 11.1128 5.06825 11.1886C4.96334 11.2614 4.87193 11.2908 4.83716 11.3011C4.79556 11.3134 4.76585 11.3178 4.75519 11.3192C4.73497 11.322 4.7239 11.322 4.71694 11.322V9.32196C4.67997 9.32196 4.59015 9.32316 4.48337 9.3378C4.41869 9.34668 4.16632 9.38009 3.92812 9.54537C3.78828 9.64239 3.58885 9.8307 3.50325 10.1409C3.4156 10.4586 3.49344 10.7354 3.58203 10.9126C3.72842 11.2054 3.98051 11.3876 4.11414 11.4786L5.23972 9.82536ZM4.66147 11.3204C4.60907 11.3175 4.6027 11.2921 4.64368 11.3313C4.66044 11.3473 4.67451 11.3647 4.68315 11.3766C4.68699 11.3819 4.68838 11.3842 4.68708 11.3822C4.6864 11.3811 4.68497 11.3788 4.68275 11.375C4.68164 11.3732 4.68033 11.3709 4.6788 11.3683C4.67804 11.3669 4.67723 11.3655 4.67636 11.364C4.67593 11.3632 4.67548 11.3624 4.67502 11.3616C4.67479 11.3612 4.67456 11.3608 4.67432 11.3603C4.67421 11.3601 4.67403 11.3598 4.67397 11.3597C4.67379 11.3594 4.6736 11.3591 5.54696 10.872C6.42031 10.3849 6.42012 10.3845 6.41994 10.3842C6.41987 10.3841 6.41969 10.3838 6.41956 10.3835C6.41931 10.3831 6.41905 10.3826 6.41878 10.3821C6.41825 10.3812 6.4177 10.3802 6.41712 10.3792C6.41597 10.3772 6.41474 10.375 6.41341 10.3727C6.41076 10.3681 6.40775 10.3629 6.40438 10.3572C6.39765 10.3458 6.38946 10.3323 6.3798 10.3169C6.36053 10.2863 6.33504 10.2478 6.30326 10.2039C6.24065 10.1174 6.14846 10.0029 6.02522 9.88514C5.78619 9.65679 5.36481 9.35641 4.77241 9.3235L4.66147 11.3204ZM4.68454 11.3782C5.15223 12.175 5.86961 12.462 6.50695 12.462V10.462C6.49444 10.462 6.48742 10.4607 6.48491 10.4601C6.4837 10.4598 6.48335 10.4597 6.48361 10.4598C6.48371 10.4598 6.48386 10.4599 6.48402 10.4599C6.48419 10.46 6.48429 10.4601 6.48428 10.4601C6.48427 10.4601 6.48406 10.4599 6.48362 10.4597C6.48318 10.4594 6.48242 10.4589 6.48132 10.4581C6.47923 10.4565 6.47518 10.4533 6.46939 10.4475C6.45814 10.4364 6.43656 10.4121 6.40937 10.3658L4.68454 11.3782ZM6.50695 12.462C6.95426 12.462 7.3351 12.3293 7.54085 12.2411L6.75301 10.4028C6.72315 10.4156 6.67906 10.4319 6.62939 10.4443C6.57885 10.457 6.53697 10.462 6.50695 10.462V12.462ZM8.13255 11.4909C8.14794 11.4011 8.17069 11.3411 8.18617 11.3095C8.19372 11.2941 8.19761 11.2894 8.19489 11.2931C8.19262 11.2962 8.17964 11.3136 8.15187 11.3377L6.84201 9.82627C6.4606 10.1568 6.24549 10.6619 6.16131 11.153L8.13255 11.4909ZM7.61187 9.58859C7.05433 9.52408 6.67186 9.40504 6.42875 9.20492C6.23914 9.04882 5.99694 8.72989 5.99694 7.90196H3.99694C3.99694 9.17403 4.39974 10.1251 5.15762 10.749C5.86202 11.3289 6.72954 11.4998 7.382 11.5753L7.61187 9.58859ZM5.99694 7.90196C5.99694 7.55766 6.10939 7.31783 6.28328 7.12859L4.81063 5.77534C4.30453 6.3261 3.99694 7.04627 3.99694 7.90196H5.99694ZM6.4661 6.05804C6.48765 6.10831 6.3636 5.84787 6.54541 5.39335L4.68846 4.65057C4.27026 5.69606 4.48627 6.51561 4.62781 6.84588L6.4661 6.05804ZM5.61693 5.02196C5.85932 5.99214 5.85909 5.9922 5.85887 5.99225C5.8588 5.99227 5.85858 5.99233 5.85843 5.99237C5.85813 5.99244 5.85784 5.99251 5.85754 5.99259C5.85695 5.99273 5.85636 5.99288 5.85578 5.99302C5.85461 5.99331 5.85344 5.99359 5.85229 5.99387C5.84998 5.99443 5.8477 5.99497 5.84546 5.9955C5.84097 5.99655 5.83661 5.99754 5.83239 5.99846C5.82393 6.00031 5.81602 6.00191 5.80864 6.00329C5.79386 6.00606 5.78129 6.00795 5.77094 6.00925C5.75015 6.01184 5.73874 6.01196 5.73696 6.01196V4.01196C5.65517 4.01196 5.58376 4.01708 5.52295 4.02468C5.4926 4.02847 5.46502 4.03287 5.44024 4.03751C5.42785 4.03983 5.41618 4.04221 5.40523 4.04461C5.39976 4.0458 5.39446 4.047 5.38935 4.0482C5.38679 4.0488 5.38428 4.0494 5.38181 4.05C5.38058 4.0503 5.37936 4.05059 5.37815 4.05089C5.37754 4.05104 5.37694 4.05119 5.37634 4.05134C5.37604 4.05141 5.37574 4.05149 5.37544 4.05156C5.37529 4.0516 5.37507 4.05165 5.37499 4.05167C5.37477 4.05173 5.37455 4.05178 5.61693 5.02196ZM5.73696 6.01196C5.6756 6.01196 5.92575 5.98917 6.55486 6.40574L7.65905 4.73818C6.80816 4.17475 6.17832 4.01196 5.73696 4.01196V6.01196ZM7.37575 6.53516C7.73638 6.43452 8.12489 6.37196 8.48696 6.37196V4.37196C7.90902 4.37196 7.33753 4.46941 6.83815 4.60877L7.37575 6.53516ZM8.48696 6.37196C8.84655 6.37196 9.22597 6.43368 9.60382 6.53673L10.13 4.6072C9.62789 4.47025 9.06736 4.37196 8.48696 4.37196V6.37196ZM10.4243 6.40226C11.0402 5.98882 11.2888 6.01196 11.2269 6.01196V4.01196C10.7851 4.01196 10.1537 4.1751 9.30961 4.74167L10.4243 6.40226ZM11.2269 3.01196C10.5354 3.01196 9.85081 3.26877 9.20741 3.62998L10.1865 5.37395C10.6831 5.09515 11.0185 5.01196 11.2269 5.01196V3.01196ZM9.88846 3.52047C9.4366 3.4323 8.95974 3.37196 8.49694 3.37196V5.37196C8.79414 5.37196 9.1373 5.41162 9.50544 5.48345L9.88846 3.52047ZM8.49694 3.37196C8.05047 3.37196 7.55826 3.4186 7.07254 3.52522L7.50135 5.47871C7.83563 5.40533 8.1834 5.37196 8.49694 5.37196V3.37196ZM7.78798 3.63654C7.12153 3.2507 6.42776 3.01196 5.74694 3.01196V5.01196C5.96611 5.01196 6.31236 5.09323 6.78591 5.36739L7.78798 3.63654ZM5.74694 3.01196C5.4453 3.01196 5.19808 3.05749 5.00072 3.12328L5.63317 5.02065C5.61581 5.02643 5.64858 5.01196 5.74694 5.01196V3.01196ZM5.01094 3.11993C4.43881 3.30383 3.98814 3.74135 3.77086 4.27467L5.62304 5.02926C5.62256 5.03044 5.62267 5.02984 5.6239 5.02807C5.62513 5.02628 5.62677 5.02435 5.62857 5.02266C5.63035 5.02098 5.63136 5.02041 5.63097 5.02065C5.63052 5.02091 5.62797 5.02238 5.62295 5.02399L5.01094 3.11993ZM3.76746 4.28312C3.44937 5.08469 3.41304 5.80379 3.49802 6.3703L5.47589 6.07362C5.44087 5.84014 5.44453 5.47923 5.62644 5.02081L3.76746 4.28312ZM3.63706 5.69502C3.22569 6.35852 3.01696 7.11204 3.01696 7.90196H5.01696C5.01696 7.47189 5.12823 7.08541 5.33686 6.7489L3.63706 5.69502ZM3.01696 7.90196C3.01696 8.55541 3.11011 9.16913 3.30274 9.72133L5.19114 9.06259C5.08377 8.75479 5.01696 8.36851 5.01696 7.90196H3.01696ZM3.90907 8.45077C3.2074 8.70265 2.76342 9.2406 2.58492 9.79595L4.48897 10.408C4.48895 10.408 4.48926 10.4071 4.49006 10.4053C4.49085 10.4035 4.49202 10.4012 4.49365 10.3984C4.49693 10.3928 4.50163 10.3862 4.50808 10.3794C4.51922 10.3675 4.54097 10.3489 4.5848 10.3332L3.90907 8.45077ZM2.57695 9.82196C2.51225 10.0438 2.434 10.4481 2.55488 10.9268C2.68173 11.4291 3.00168 11.9086 3.55716 12.2938L4.69672 10.6502C4.59303 10.5783 4.54383 10.5212 4.52173 10.4903C4.5004 10.4605 4.49547 10.4429 4.49401 10.4371C4.48989 10.4208 4.49164 10.4001 4.49695 10.382L2.57695 9.82196ZM3.41984 12.1791C3.48263 12.2419 3.54145 12.2851 3.57886 12.3107C3.59805 12.3239 3.61449 12.3343 3.62556 12.3411C3.63597 12.3476 3.64545 12.3533 3.6475 12.3545C3.6517 12.357 3.64848 12.3551 3.64424 12.3525C3.63934 12.3494 3.62899 12.3429 3.61574 12.3339C3.5902 12.3164 3.54264 12.2819 3.48984 12.2291L4.90406 10.8149C4.84126 10.7521 4.78245 10.7088 4.74503 10.6832C4.72584 10.6701 4.7094 10.6597 4.69833 10.6528C4.68792 10.6463 4.67844 10.6407 4.67639 10.6394C4.67219 10.6369 4.67542 10.6388 4.67965 10.6415C4.68455 10.6445 4.6949 10.651 4.70815 10.6601C4.73369 10.6775 4.78126 10.7121 4.83405 10.7649L3.41984 12.1791ZM3.48984 12.2291C3.46738 12.2066 3.45197 12.1886 3.44244 12.1768C3.43222 12.1642 3.42584 12.155 3.4225 12.1499C3.41564 12.1395 3.42104 12.1454 3.43228 12.1727L5.28163 11.4112C5.16484 11.1276 5.02366 10.9345 4.90406 10.8149L3.48984 12.2291ZM3.4122 12.1197C3.67752 12.8845 4.48482 13.9504 5.99002 14.1896L6.30384 12.2144C5.66904 12.1135 5.37639 11.6794 5.30171 11.4642L3.4122 12.1197ZM5.14693 13.202V14.282H7.14693V13.202H5.14693ZM5.14693 14.282C5.14693 15.2343 5.81654 16.0318 6.72451 16.2291L7.14937 14.2748C7.14577 14.274 7.14428 14.2731 7.14392 14.2729C7.14332 14.2725 7.1433 14.2724 7.14364 14.2728C7.14401 14.2732 7.14495 14.2745 7.1458 14.2769C7.14622 14.2781 7.14654 14.2793 7.14673 14.2804C7.14693 14.2815 7.14693 14.2821 7.14693 14.282H5.14693ZM6.72998 16.2303C7.30935 16.3529 7.89906 16.422 8.48696 16.422V14.422C8.05485 14.422 7.60453 14.3711 7.1439 14.2736L6.72998 16.2303ZM8.48696 16.422C9.07435 16.422 9.66516 16.353 10.2378 16.2295L9.8161 14.2744C9.36871 14.3709 8.91956 14.422 8.48696 14.422V16.422ZM10.2394 16.2291C11.1533 16.0305 11.8169 15.2182 11.8169 14.282H9.81694C9.81694 14.2769 9.81792 14.2731 9.81857 14.2713C9.81909 14.2699 9.81915 14.2704 9.81799 14.2718C9.81684 14.2732 9.81564 14.2742 9.81494 14.2746C9.81457 14.2748 9.81465 14.2748 9.81451 14.2748L10.2394 16.2291ZM11.8169 14.282V11.592H9.81694V14.282H11.8169ZM11.8169 11.592C11.8169 11.5918 11.8169 11.5916 11.8169 11.5914C11.8169 11.5912 11.8169 11.591 11.8169 11.5908C11.8169 11.5906 11.8169 11.5904 11.8169 11.5902C11.8169 11.59 11.8169 11.5898 11.8169 11.5896C11.8169 11.5894 11.8169 11.5892 11.8169 11.589C11.8169 11.5888 11.8169 11.5886 11.8169 11.5884C11.8169 11.5883 11.8169 11.5881 11.8169 11.5879C11.8169 11.5877 11.8169 11.5875 11.8169 11.5873C11.8169 11.5871 11.8169 11.5869 11.8169 11.5867C11.8169 11.5865 11.8169 11.5863 11.8169 11.5861C11.8169 11.5859 11.8169 11.5857 11.8169 11.5855C11.8169 11.5853 11.8169 11.5851 11.8169 11.5849C11.8169 11.5847 11.8169 11.5845 11.8169 11.5843C11.8169 11.5842 11.8169 11.584 11.8169 11.5838C11.8169 11.5836 11.8169 11.5834 11.8169 11.5832C11.8169 11.583 11.8169 11.5828 11.8169 11.5826C11.8169 11.5824 11.8169 11.5822 11.8169 11.582C11.8169 11.5818 11.8169 11.5816 11.8169 11.5814C11.8169 11.5812 11.8169 11.581 11.8169 11.5808C11.8169 11.5806 11.8169 11.5804 11.8169 11.5802C11.8169 11.58 11.8169 11.5799 11.8169 11.5797C11.8169 11.5795 11.8169 11.5793 11.8169 11.5791C11.8169 11.5789 11.8169 11.5787 11.8169 11.5785C11.8169 11.5783 11.8169 11.5781 11.8169 11.5779C11.8169 11.5777 11.8169 11.5775 11.8169 11.5773C11.8169 11.5771 11.8169 11.5769 11.8169 11.5767C11.8169 11.5765 11.8169 11.5763 11.8169 11.5761C11.8169 11.5759 11.8169 11.5758 11.8169 11.5756C11.8169 11.5754 11.8169 11.5752 11.8169 11.575C11.8169 11.5748 11.8169 11.5746 11.8169 11.5744C11.8169 11.5742 11.8169 11.574 11.8169 11.5738C11.8169 11.5736 11.8169 11.5734 11.8169 11.5732C11.8169 11.573 11.8169 11.5728 11.8169 11.5726C11.8169 11.5724 11.8169 11.5722 11.8169 11.572C11.8169 11.5718 11.8169 11.5717 11.8169 11.5715C11.8169 11.5713 11.8169 11.5711 11.8169 11.5709C11.8169 11.5707 11.8169 11.5705 11.8169 11.5703C11.8169 11.5701 11.8169 11.5699 11.8169 11.5697C11.8169 11.5695 11.8169 11.5693 11.8169 11.5691C11.8169 11.5689 11.8169 11.5687 11.8169 11.5685C11.8169 11.5683 11.8169 11.5681 11.8169 11.5679C11.8169 11.5677 11.8169 11.5676 11.8169 11.5674C11.8169 11.5672 11.8169 11.567 11.8169 11.5668C11.8169 11.5666 11.8169 11.5664 11.8169 11.5662C11.8169 11.566 11.8169 11.5658 11.8169 11.5656C11.8169 11.5654 11.8169 11.5652 11.8169 11.565C11.8169 11.5648 11.8169 11.5646 11.8169 11.5644C11.8169 11.5642 11.8169 11.564 11.8169 11.5638C11.8169 11.5637 11.8169 11.5635 11.8169 11.5633C11.8169 11.5631 11.8169 11.5629 11.8169 11.5627C11.8169 11.5625 11.8169 11.5623 11.8169 11.5621C11.8169 11.5619 11.8169 11.5617 11.8169 11.5615C11.8169 11.5613 11.8169 11.5611 11.8169 11.5609C11.8169 11.5607 11.8169 11.5605 11.8169 11.5603C11.8169 11.5601 11.8169 11.5599 11.8169 11.5597C11.8169 11.5596 11.8169 11.5594 11.8169 11.5592C11.8169 11.559 11.8169 11.5588 11.8169 11.5586C11.8169 11.5584 11.8169 11.5582 11.8169 11.558C11.8169 11.5578 11.8169 11.5576 11.8169 11.5574C11.8169 11.5572 11.8169 11.557 11.8169 11.5568C11.8169 11.5566 11.8169 11.5564 11.8169 11.5562C11.8169 11.556 11.8169 11.5558 11.8169 11.5557C11.8169 11.5555 11.8169 11.5553 11.8169 11.5551C11.8169 11.5549 11.8169 11.5547 11.8169 11.5545C11.8169 11.5543 11.8169 11.5541 11.8169 11.5539C11.8169 11.5537 11.8169 11.5535 11.8169 11.5533C11.8169 11.5531 11.8169 11.5529 11.8169 11.5527C11.8169 11.5525 11.8169 11.5523 11.8169 11.5521C11.8169 11.5519 11.8169 11.5518 11.8169 11.5516C11.8169 11.5514 11.8169 11.5512 11.8169 11.551C11.8169 11.5508 11.8169 11.5506 11.8169 11.5504C11.8169 11.5502 11.8169 11.55 11.8169 11.5498C11.8169 11.5496 11.8169 11.5494 11.8169 11.5492C11.8169 11.549 11.8169 11.5488 11.8169 11.5486C11.8169 11.5484 11.8169 11.5482 11.8169 11.548C11.8169 11.5479 11.8169 11.5477 11.8169 11.5475C11.8169 11.5473 11.8169 11.5471 11.8169 11.5469C11.8169 11.5467 11.8169 11.5465 11.8169 11.5463C11.8169 11.5461 11.8169 11.5459 11.8169 11.5457C11.8169 11.5455 11.8169 11.5453 11.8169 11.5451C11.8169 11.5449 11.8169 11.5447 11.8169 11.5445C11.8169 11.5443 11.8169 11.5442 11.8169 11.544C11.8169 11.5438 11.8169 11.5436 11.8169 11.5434C11.8169 11.5432 11.8169 11.543 11.8169 11.5428C11.8169 11.5426 11.8169 11.5424 11.8169 11.5422C11.8169 11.542 11.8169 11.5418 11.8169 11.5416C11.8169 11.5414 11.8169 11.5412 11.8169 11.541C11.8169 11.5408 11.8169 11.5406 11.8169 11.5405C11.8169 11.5403 11.8169 11.5401 11.8169 11.5399C11.8169 11.5397 11.8169 11.5395 11.8169 11.5393C11.8169 11.5391 11.8169 11.5389 11.8169 11.5387C11.8169 11.5385 11.8169 11.5383 11.8169 11.5381C11.8169 11.5379 11.8169 11.5377 11.8169 11.5375C11.8169 11.5373 11.8169 11.5371 11.8169 11.5369C11.8169 11.5368 11.8169 11.5366 11.8169 11.5364C11.8169 11.5362 11.8169 11.536 11.8169 11.5358C11.8169 11.5356 11.8169 11.5354 11.8169 11.5352C11.8169 11.535 11.8169 11.5348 11.8169 11.5346C11.8169 11.5344 11.8169 11.5342 11.8169 11.534C11.8169 11.5338 11.8169 11.5336 11.8169 11.5334C11.8169 11.5332 11.8169 11.5331 11.8169 11.5329C11.8169 11.5327 11.8169 11.5325 11.8169 11.5323C11.8169 11.5321 11.8169 11.5319 11.8169 11.5317C11.8169 11.5315 11.8169 11.5313 11.8169 11.5311C11.8169 11.5309 11.8169 11.5307 11.8169 11.5305C11.8169 11.5303 11.8169 11.5301 11.8169 11.5299C11.8169 11.5297 11.8169 11.5296 11.8169 11.5294C11.8169 11.5292 11.8169 11.529 11.8169 11.5288C11.8169 11.5286 11.8169 11.5284 11.8169 11.5282C11.8169 11.528 11.8169 11.5278 11.8169 11.5276C11.8169 11.5274 11.8169 11.5272 11.8169 11.527C11.8169 11.5268 11.8169 11.5266 11.8169 11.5264C11.8169 11.5262 11.8169 11.5261 11.8169 11.5259C11.8169 11.5257 11.8169 11.5255 11.8169 11.5253C11.8169 11.5251 11.8169 11.5249 11.8169 11.5247C11.8169 11.5245 11.8169 11.5243 11.8169 11.5241C11.8169 11.5239 11.8169 11.5237 11.8169 11.5235C11.8169 11.5233 11.8169 11.5231 11.8169 11.5229C11.8169 11.5228 11.8169 11.5226 11.8169 11.5224C11.8169 11.5222 11.8169 11.522 11.8169 11.5218C11.8169 11.5216 11.8169 11.5214 11.8169 11.5212C11.8169 11.521 11.8169 11.5208 11.8169 11.5206C11.8169 11.5204 11.8169 11.5202 11.8169 11.52C11.8169 11.5198 11.8169 11.5196 11.8169 11.5194C11.8169 11.5193 11.8169 11.5191 11.8169 11.5189C11.8169 11.5187 11.8169 11.5185 11.8169 11.5183C11.8169 11.5181 11.8169 11.5179 11.8169 11.5177C11.8169 11.5175 11.8169 11.5173 11.8169 11.5171C11.8169 11.5169 11.8169 11.5167 11.8169 11.5165C11.8169 11.5163 11.8169 11.5161 11.8169 11.516C11.8169 11.5158 11.8169 11.5156 11.8169 11.5154C11.8169 11.5152 11.8169 11.515 11.8169 11.5148C11.8169 11.5146 11.8169 11.5144 11.8169 11.5142C11.8169 11.514 11.8169 11.5138 11.8169 11.5136C11.8169 11.5134 11.8169 11.5132 11.8169 11.513C11.8169 11.5129 11.8169 11.5127 11.8169 11.5125C11.8169 11.5123 11.8169 11.5121 11.8169 11.5119C11.8169 11.5117 11.8169 11.5115 11.8169 11.5113C11.8169 11.5111 11.8169 11.5109 11.8169 11.5107C11.8169 11.5105 11.8169 11.5103 11.8169 11.5101C11.8169 11.5099 11.8169 11.5097 11.8169 11.5096C11.8169 11.5094 11.8169 11.5092 11.8169 11.509C11.8169 11.5088 11.8169 11.5086 11.8169 11.5084C11.8169 11.5082 11.8169 11.508 11.8169 11.5078C11.8169 11.5076 11.8169 11.5074 11.8169 11.5072C11.8169 11.507 11.8169 11.5068 11.8169 11.5066C11.8169 11.5065 11.8169 11.5063 11.8169 11.5061C11.8169 11.5059 11.8169 11.5057 11.8169 11.5055C11.8169 11.5053 11.8169 11.5051 11.8169 11.5049C11.8169 11.5047 11.8169 11.5045 11.8169 11.5043C11.8169 11.5041 11.8169 11.5039 11.8169 11.5037C11.8169 11.5035 11.8169 11.5034 11.8169 11.5032C11.8169 11.503 11.8169 11.5028 11.8169 11.5026C11.8169 11.5024 11.8169 11.5022 11.8169 11.502C11.8169 11.5018 11.8169 11.5016 11.8169 11.5014C11.8169 11.5012 11.8169 11.501 11.8169 11.5008C11.8169 11.5006 11.8169 11.5005 11.8169 11.5003C11.8169 11.5001 11.8169 11.4999 11.8169 11.4997C11.8169 11.4995 11.8169 11.4993 11.8169 11.4991C11.8169 11.4989 11.8169 11.4987 11.8169 11.4985C11.8169 11.4983 11.8169 11.4981 11.8169 11.4979C11.8169 11.4977 11.8169 11.4976 11.8169 11.4974C11.8169 11.4972 11.8169 11.497 11.8169 11.4968C11.8169 11.4966 11.8169 11.4964 11.8169 11.4962C11.8169 11.496 11.8169 11.4958 11.8169 11.4956C11.8169 11.4954 11.8169 11.4952 11.8169 11.495C11.8169 11.4948 11.8169 11.4947 11.8169 11.4945C11.8169 11.4943 11.8169 11.4941 11.8169 11.4939C11.8169 11.4937 11.8169 11.4935 11.8169 11.4933C11.8169 11.4931 11.8169 11.4929 11.8169 11.4927C11.8169 11.4925 11.8169 11.4923 11.8169 11.4921C11.8169 11.4919 11.8169 11.4918 11.8169 11.4916C11.8169 11.4914 11.8169 11.4912 11.8169 11.491C11.8169 11.4908 11.8169 11.4906 11.8169 11.4904C11.8169 11.4902 11.8169 11.49 11.8169 11.4898C11.8169 11.4896 11.8169 11.4894 11.8169 11.4892C11.8169 11.4891 11.8169 11.4889 11.8169 11.4887C11.8169 11.4885 11.8169 11.4883 11.8169 11.4881C11.8169 11.4879 11.8169 11.4877 11.8169 11.4875C11.8169 11.4873 11.8169 11.4871 11.8169 11.4869C11.8169 11.4867 11.8169 11.4865 11.8169 11.4864C11.8169 11.4862 11.8169 11.486 11.8169 11.4858C11.8169 11.4856 11.8169 11.4854 11.8169 11.4852C11.8169 11.485 11.8169 11.4848 11.8169 11.4846C11.8169 11.4844 11.8169 11.4842 11.8169 11.484C11.8169 11.4838 11.8169 11.4837 11.8169 11.4835C11.8169 11.4833 11.8169 11.4831 11.8169 11.4829C11.8169 11.4827 11.8169 11.4825 11.8169 11.4823C11.8169 11.4821 11.8169 11.4819 11.8169 11.4817C11.8169 11.4815 11.8169 11.4813 11.8169 11.4811C11.8169 11.481 11.8169 11.4808 11.8169 11.4806C11.8169 11.4804 11.8169 11.4802 11.8169 11.48C11.8169 11.4798 11.8169 11.4796 11.8169 11.4794C11.8169 11.4792 11.8169 11.479 11.8169 11.4788C11.8169 11.4786 11.8169 11.4784 11.8169 11.4783C11.8169 11.4781 11.8169 11.4779 11.8169 11.4777C11.8169 11.4775 11.8169 11.4773 11.8169 11.4771C11.8169 11.4769 11.8169 11.4767 11.8169 11.4765C11.8169 11.4763 11.8169 11.4761 11.8169 11.4759C11.8169 11.4758 11.8169 11.4756 11.8169 11.4754C11.8169 11.4752 11.8169 11.475 11.8169 11.4748C11.8169 11.4746 11.8169 11.4744 11.8169 11.4742C11.8169 11.474 11.8169 11.4738 11.8169 11.4736C11.8169 11.4734 11.8169 11.4733 11.8169 11.4731C11.8169 11.4729 11.8169 11.4727 11.8169 11.4725C11.8169 11.4723 11.8169 11.4721 11.8169 11.4719C11.8169 11.4717 11.8169 11.4715 11.8169 11.4713C11.8169 11.4711 11.8169 11.471 11.8169 11.4708C11.8169 11.4706 11.8169 11.4704 11.8169 11.4702C11.8169 11.47 11.8169 11.4698 11.8169 11.4696C11.8169 11.4694 11.8169 11.4692 11.8169 11.469C11.8169 11.4688 11.8169 11.4686 11.8169 11.4685C11.8169 11.4683 11.8169 11.4681 11.8169 11.4679C11.8169 11.4677 11.8169 11.4675 11.8169 11.4673C11.8169 11.4671 11.8169 11.4669 11.8169 11.4667C11.8169 11.4665 11.8169 11.4663 11.8169 11.4662C11.8169 11.466 11.8169 11.4658 11.8169 11.4656C11.8169 11.4654 11.8169 11.4652 11.8169 11.465C11.8169 11.4648 11.8169 11.4646 11.8169 11.4644C11.8169 11.4642 11.8169 11.464 11.8169 11.4639C11.8169 11.4637 11.8169 11.4635 11.8169 11.4633C11.8169 11.4631 11.8169 11.4629 11.8169 11.4627C11.8169 11.4625 11.8169 11.4623 11.8169 11.4621C11.8169 11.4619 11.8169 11.4617 11.8169 11.4616C11.8169 11.4614 11.8169 11.4612 11.8169 11.461C11.8169 11.4608 11.8169 11.4606 11.8169 11.4604C11.8169 11.4602 11.8169 11.46 11.8169 11.4598C11.8169 11.4596 11.8169 11.4594 11.8169 11.4593C11.8169 11.4591 11.8169 11.4589 11.8169 11.4587C11.8169 11.4585 11.8169 11.4583 11.8169 11.4581C11.8169 11.4579 11.8169 11.4577 11.8169 11.4575C11.8169 11.4573 11.8169 11.4571 11.8169 11.457C11.8169 11.4568 11.8169 11.4566 11.8169 11.4564C11.8169 11.4562 11.8169 11.456 11.8169 11.4558C11.8169 11.4556 11.8169 11.4554 11.8169 11.4552C11.8169 11.455 11.8169 11.4549 11.8169 11.4547C11.8169 11.4545 11.8169 11.4543 11.8169 11.4541C11.8169 11.4539 11.8169 11.4537 11.8169 11.4535C11.8169 11.4533 11.8169 11.4531 11.8169 11.4529C11.8169 11.4527 11.8169 11.4526 11.8169 11.4524C11.8169 11.4522 11.8169 11.452 11.8169 11.4518C11.8169 11.4516 11.8169 11.4514 11.8169 11.4512C11.8169 11.451 11.8169 11.4508 11.8169 11.4506C11.8169 11.4505 11.8169 11.4503 11.8169 11.4501C11.8169 11.4499 11.8169 11.4497 11.8169 11.4495C11.8169 11.4493 11.8169 11.4491 11.8169 11.4489C11.8169 11.4487 11.8169 11.4485 11.8169 11.4484C11.8169 11.4482 11.8169 11.448 11.8169 11.4478C11.8169 11.4476 11.8169 11.4474 11.8169 11.4472C11.8169 11.447 11.8169 11.4468 11.8169 11.4466C11.8169 11.4465 11.8169 11.4463 11.8169 11.4461C11.8169 11.4459 11.8169 11.4457 11.8169 11.4455C11.8169 11.4453 11.8169 11.4451 11.8169 11.4449C11.8169 11.4447 11.8169 11.4445 11.8169 11.4444C11.8169 11.4442 11.8169 11.444 11.8169 11.4438C11.8169 11.4436 11.8169 11.4434 11.8169 11.4432C11.8169 11.443 11.8169 11.4428 11.8169 11.4426C11.8169 11.4425 11.8169 11.4423 11.8169 11.4421C11.8169 11.4419 11.8169 11.4417 11.8169 11.4415C11.8169 11.4413 11.8169 11.4411 11.8169 11.4409C11.8169 11.4407 11.8169 11.4405 11.8169 11.4404C11.8169 11.4402 11.8169 11.44 11.8169 11.4398C11.8169 11.4396 11.8169 11.4394 11.8169 11.4392C11.8169 11.439 11.8169 11.4388 11.8169 11.4386C11.8169 11.4385 11.8169 11.4383 11.8169 11.4381C11.8169 11.4379 11.8169 11.4377 11.8169 11.4375C11.8169 11.4373 11.8169 11.4371 11.8169 11.4369C11.8169 11.4367 11.8169 11.4366 11.8169 11.4364C11.8169 11.4362 11.8169 11.436 11.8169 11.4358C11.8169 11.4356 11.8169 11.4354 11.8169 11.4352C11.8169 11.435 11.8169 11.4348 11.8169 11.4347C11.8169 11.4345 11.8169 11.4343 11.8169 11.4341C11.8169 11.4339 11.8169 11.4337 11.8169 11.4335C11.8169 11.4333 11.8169 11.4331 11.8169 11.4329C11.8169 11.4328 11.8169 11.4326 11.8169 11.4324C11.8169 11.4322 11.8169 11.432 11.8169 11.4318C11.8169 11.4316 11.8169 11.4314 11.8169 11.4312C11.8169 11.4311 11.8169 11.4309 11.8169 11.4307C11.8169 11.4305 11.8169 11.4303 11.8169 11.4301C11.8169 11.4299 11.8169 11.4297 11.8169 11.4295C11.8169 11.4293 11.8169 11.4292 11.8169 11.429C11.8169 11.4288 11.8169 11.4286 11.8169 11.4284C11.8169 11.4282 11.8169 11.428 11.8169 11.4278C11.8169 11.4276 11.8169 11.4275 11.8169 11.4273C11.8169 11.4271 11.8169 11.4269 11.8169 11.4267C11.8169 11.4265 11.8169 11.4263 11.8169 11.4261C11.8169 11.4259 11.8169 11.4257 11.8169 11.4256C11.8169 11.4254 11.8169 11.4252 11.8169 11.425C11.8169 11.4248 11.8169 11.4246 11.8169 11.4244C11.8169 11.4242 11.8169 11.424 11.8169 11.4239C11.8169 11.4237 11.8169 11.4235 11.8169 11.4233C11.8169 11.4231 11.8169 11.4229 11.8169 11.4227C11.8169 11.4225 11.8169 11.4223 11.8169 11.4222C11.8169 11.422 11.8169 11.4218 11.8169 11.4216C11.8169 11.4214 11.8169 11.4212 11.8169 11.421C11.8169 11.4208 11.8169 11.4206 11.8169 11.4205C11.8169 11.4203 11.8169 11.4201 11.8169 11.4199C11.8169 11.4197 11.8169 11.4195 11.8169 11.4193C11.8169 11.4191 11.8169 11.4189 11.8169 11.4188C11.8169 11.4186 11.8169 11.4184 11.8169 11.4182C11.8169 11.418 11.8169 11.4178 11.8169 11.4176C11.8169 11.4174 11.8169 11.4173 11.8169 11.4171C11.8169 11.4169 11.8169 11.4167 11.8169 11.4165C11.8169 11.4163 11.8169 11.4161 11.8169 11.4159C11.8169 11.4157 11.8169 11.4156 11.8169 11.4154C11.8169 11.4152 11.8169 11.415 11.8169 11.4148C11.8169 11.4146 11.8169 11.4144 11.8169 11.4142C11.8169 11.414 11.8169 11.4139 11.8169 11.4137C11.8169 11.4135 11.8169 11.4133 11.8169 11.4131C11.8169 11.4129 11.8169 11.4127 11.8169 11.4125C11.8169 11.4124 11.8169 11.4122 11.8169 11.412C11.8169 11.4118 11.8169 11.4116 11.8169 11.4114C11.8169 11.4112 11.8169 11.411 11.8169 11.4108C11.8169 11.4107 11.8169 11.4105 11.8169 11.4103C11.8169 11.4101 11.8169 11.4099 11.8169 11.4097C11.8169 11.4095 11.8169 11.4093 11.8169 11.4092C11.8169 11.409 11.8169 11.4088 11.8169 11.4086C11.8169 11.4084 11.8169 11.4082 11.8169 11.408C11.8169 11.4078 11.8169 11.4077 11.8169 11.4075C11.8169 11.4073 11.8169 11.4071 11.8169 11.4069C11.8169 11.4067 11.8169 11.4065 11.8169 11.4063C11.8169 11.4062 11.8169 11.406 11.8169 11.4058C11.8169 11.4056 11.8169 11.4054 11.8169 11.4052C11.8169 11.405 11.8169 11.4048 11.8169 11.4047C11.8169 11.4045 11.8169 11.4043 11.8169 11.4041C11.8169 11.4039 11.8169 11.4037 11.8169 11.4035C11.8169 11.4033 11.8169 11.4032 11.8169 11.403C11.8169 11.4028 11.8169 11.4026 11.8169 11.4024C11.8169 11.4022 11.8169 11.402 11.8169 11.4018C11.8169 11.4017 11.8169 11.4015 11.8169 11.4013C11.8169 11.4011 11.8169 11.4009 11.8169 11.4007C11.8169 11.4005 11.8169 11.4003 11.8169 11.4002C11.8169 11.4 11.8169 11.3998 11.8169 11.3996C11.8169 11.3994 11.8169 11.3992 11.8169 11.399C11.8169 11.3988 11.8169 11.3987 11.8169 11.3985C11.8169 11.3983 11.8169 11.3981 11.8169 11.3979C11.8169 11.3977 11.8169 11.3975 11.8169 11.3974C11.8169 11.3972 11.8169 11.397 11.8169 11.3968C11.8169 11.3966 11.8169 11.3964 11.8169 11.3962C11.8169 11.396 11.8169 11.3959 11.8169 11.3957C11.8169 11.3955 11.8169 11.3953 11.8169 11.3951C11.8169 11.3949 11.8169 11.3947 11.8169 11.3946C11.8169 11.3944 11.8169 11.3942 11.8169 11.394C11.8169 11.3938 11.8169 11.3936 11.8169 11.3934C11.8169 11.3932 11.8169 11.3931 11.8169 11.3929C11.8169 11.3927 11.8169 11.3925 11.8169 11.3923C11.8169 11.3921 11.8169 11.3919 11.8169 11.3918C11.8169 11.3916 11.8169 11.3914 11.8169 11.3912C11.8169 11.391 11.8169 11.3908 11.8169 11.3906C11.8169 11.3905 11.8169 11.3903 11.8169 11.3901C11.8169 11.3899 11.8169 11.3897 11.8169 11.3895C11.8169 11.3893 11.8169 11.3891 11.8169 11.389C11.8169 11.3888 11.8169 11.3886 11.8169 11.3884C11.8169 11.3882 11.8169 11.388 11.8169 11.3878C11.8169 11.3877 11.8169 11.3875 11.8169 11.3873C11.8169 11.3871 11.8169 11.3869 11.8169 11.3867C11.8169 11.3865 11.8169 11.3864 11.8169 11.3862C11.8169 11.386 11.8169 11.3858 11.8169 11.3856C11.8169 11.3854 11.8169 11.3852 11.8169 11.3851C11.8169 11.3849 11.8169 11.3847 11.8169 11.3845C11.8169 11.3843 11.8169 11.3841 11.8169 11.3839C11.8169 11.3838 11.8169 11.3836 11.8169 11.3834C11.8169 11.3832 11.8169 11.383 11.8169 11.3828C11.8169 11.3826 11.8169 11.3825 11.8169 11.3823C11.8169 11.3821 11.8169 11.3819 11.8169 11.3817C11.8169 11.3815 11.8169 11.3813 11.8169 11.3812C11.8169 11.381 11.8169 11.3808 11.8169 11.3806C11.8169 11.3804 11.8169 11.3802 11.8169 11.3801C11.8169 11.3799 11.8169 11.3797 11.8169 11.3795C11.8169 11.3793 11.8169 11.3791 11.8169 11.3789C11.8169 11.3788 11.8169 11.3786 11.8169 11.3784C11.8169 11.3782 11.8169 11.378 11.8169 11.3778C11.8169 11.3776 11.8169 11.3775 11.8169 11.3773C11.8169 11.3771 11.8169 11.3769 11.8169 11.3767C11.8169 11.3765 11.8169 11.3763 11.8169 11.3762C11.8169 11.376 11.8169 11.3758 11.8169 11.3756C11.8169 11.3754 11.8169 11.3752 11.8169 11.3751C11.8169 11.3749 11.8169 11.3747 11.8169 11.3745C11.8169 11.3743 11.8169 11.3741 11.8169 11.3739C11.8169 11.3738 11.8169 11.3736 11.8169 11.3734C11.8169 11.3732 11.8169 11.373 11.8169 11.3728C11.8169 11.3727 11.8169 11.3725 11.8169 11.3723C11.8169 11.3721 11.8169 11.3719 11.8169 11.3717C11.8169 11.3716 11.8169 11.3714 11.8169 11.3712C11.8169 11.371 11.8169 11.3708 11.8169 11.3706C11.8169 11.3704 11.8169 11.3703 11.8169 11.3701C11.8169 11.3699 11.8169 11.3697 11.8169 11.3695C11.8169 11.3693 11.8169 11.3692 11.8169 11.369C11.8169 11.3688 11.8169 11.3686 11.8169 11.3684C11.8169 11.3682 11.8169 11.3681 11.8169 11.3679C11.8169 11.3677 11.8169 11.3675 11.8169 11.3673C11.8169 11.3671 11.8169 11.3669 11.8169 11.3668C11.8169 11.3666 11.8169 11.3664 11.8169 11.3662C11.8169 11.366 11.8169 11.3658 11.8169 11.3657C11.8169 11.3655 11.8169 11.3653 11.8169 11.3651C11.8169 11.3649 11.8169 11.3647 11.8169 11.3646C11.8169 11.3644 11.8169 11.3642 11.8169 11.364C11.8169 11.3638 11.8169 11.3636 11.8169 11.3635C11.8169 11.3633 11.8169 11.3631 11.8169 11.3629C11.8169 11.3627 11.8169 11.3625 11.8169 11.3624C11.8169 11.3622 11.8169 11.362 11.8169 11.3618C11.8169 11.3616 11.8169 11.3614 11.8169 11.3613C11.8169 11.3611 11.8169 11.3609 11.8169 11.3607C11.8169 11.3605 11.8169 11.3603 11.8169 11.3602C11.8169 11.36 11.8169 11.3598 11.8169 11.3596C11.8169 11.3594 11.8169 11.3592 11.8169 11.3591C11.8169 11.3589 11.8169 11.3587 11.8169 11.3585C11.8169 11.3583 11.8169 11.3581 11.8169 11.358C11.8169 11.3578 11.8169 11.3576 11.8169 11.3574C11.8169 11.3572 11.8169 11.357 11.8169 11.3569C11.8169 11.3567 11.8169 11.3565 11.8169 11.3563C11.8169 11.3561 11.8169 11.3559 11.8169 11.3558C11.8169 11.3556 11.8169 11.3554 11.8169 11.3552C11.8169 11.355 11.8169 11.3549 11.8169 11.3547C11.8169 11.3545 11.8169 11.3543 11.8169 11.3541C11.8169 11.3539 11.8169 11.3538 11.8169 11.3536C11.8169 11.3534 11.8169 11.3532 11.8169 11.353C11.8169 11.3528 11.8169 11.3527 11.8169 11.3525C11.8169 11.3523 11.8169 11.3521 11.8169 11.3519C11.8169 11.3518 11.8169 11.3516 11.8169 11.3514C11.8169 11.3512 11.8169 11.351 11.8169 11.3508C11.8169 11.3507 11.8169 11.3505 11.8169 11.3503C11.8169 11.3501 11.8169 11.3499 11.8169 11.3498C11.8169 11.3496 11.8169 11.3494 11.8169 11.3492C11.8169 11.349 11.8169 11.3488 11.8169 11.3487C11.8169 11.3485 11.8169 11.3483 11.8169 11.3481C11.8169 11.3479 11.8169 11.3477 11.8169 11.3476C11.8169 11.3474 11.8169 11.3472 11.8169 11.347C11.8169 11.3468 11.8169 11.3467 11.8169 11.3465C11.8169 11.3463 11.8169 11.3461 11.8169 11.3459C11.8169 11.3458 11.8169 11.3456 11.8169 11.3454C11.8169 11.3452 11.8169 11.345 11.8169 11.3448C11.8169 11.3447 11.8169 11.3445 11.8169 11.3443C11.8169 11.3441 11.8169 11.3439 11.8169 11.3438C11.8169 11.3436 11.8169 11.3434 11.8169 11.3432C11.8169 11.343 11.8169 11.3429 11.8169 11.3427C11.8169 11.3425 11.8169 11.3423 11.8169 11.3421C11.8169 11.3419 11.8169 11.3418 11.8169 11.3416C11.8169 11.3414 11.8169 11.3412 11.8169 11.341C11.8169 11.3409 11.8169 11.3407 11.8169 11.3405C11.8169 11.3403 11.8169 11.3401 11.8169 11.34C11.8169 11.3398 11.8169 11.3396 11.8169 11.3394C11.8169 11.3392 11.8169 11.3391 11.8169 11.3389C11.8169 11.3387 11.8169 11.3385 11.8169 11.3383C11.8169 11.3381 11.8169 11.338 11.8169 11.3378C11.8169 11.3376 11.8169 11.3374 11.8169 11.3372C11.8169 11.3371 11.8169 11.3369 11.8169 11.3367C11.8169 11.3365 11.8169 11.3363 11.8169 11.3362C11.8169 11.336 11.8169 11.3358 11.8169 11.3356C11.8169 11.3354 11.8169 11.3353 11.8169 11.3351C11.8169 11.3349 11.8169 11.3347 11.8169 11.3345C11.8169 11.3344 11.8169 11.3342 11.8169 11.334C11.8169 11.3338 11.8169 11.3336 11.8169 11.3335C11.8169 11.3333 11.8169 11.3331 11.8169 11.3329C11.8169 11.3327 11.8169 11.3326 11.8169 11.3324C11.8169 11.3322 11.8169 11.332 11.8169 11.3318C11.8169 11.3317 11.8169 11.3315 11.8169 11.3313C11.8169 11.3311 11.8169 11.3309 11.8169 11.3308C11.8169 11.3306 11.8169 11.3304 11.8169 11.3302C11.8169 11.33 11.8169 11.3299 11.8169 11.3297C11.8169 11.3295 11.8169 11.3293 11.8169 11.3291C11.8169 11.329 11.8169 11.3288 11.8169 11.3286C11.8169 11.3284 11.8169 11.3282 11.8169 11.3281C11.8169 11.3279 11.8169 11.3277 11.8169 11.3275C11.8169 11.3274 11.8169 11.3272 11.8169 11.327C11.8169 11.3268 11.8169 11.3266 11.8169 11.3265C11.8169 11.3263 11.8169 11.3261 11.8169 11.3259C11.8169 11.3257 11.8169 11.3256 11.8169 11.3254C11.8169 11.3252 11.8169 11.325 11.8169 11.3248C11.8169 11.3247 11.8169 11.3245 11.8169 11.3243C11.8169 11.3241 11.8169 11.3239 11.8169 11.3238C11.8169 11.3236 11.8169 11.3234 11.8169 11.3232C11.8169 11.3231 11.8169 11.3229 11.8169 11.3227C11.8169 11.3225 11.8169 11.3223 11.8169 11.3222C11.8169 11.322 11.8169 11.3218 11.8169 11.3216C11.8169 11.3214 11.8169 11.3213 11.8169 11.3211C11.8169 11.3209 11.8169 11.3207 11.8169 11.3206C11.8169 11.3204 11.8169 11.3202 11.8169 11.32C11.8169 11.3198 11.8169 11.3197 11.8169 11.3195C11.8169 11.3193 11.8169 11.3191 11.8169 11.319C11.8169 11.3188 11.8169 11.3186 11.8169 11.3184C11.8169 11.3182 11.8169 11.3181 11.8169 11.3179C11.8169 11.3177 11.8169 11.3175 11.8169 11.3174C11.8169 11.3172 11.8169 11.317 11.8169 11.3168C11.8169 11.3166 11.8169 11.3165 11.8169 11.3163C11.8169 11.3161 11.8169 11.3159 11.8169 11.3157C11.8169 11.3156 11.8169 11.3154 11.8169 11.3152C11.8169 11.315 11.8169 11.3149 11.8169 11.3147C11.8169 11.3145 11.8169 11.3143 11.8169 11.3142C11.8169 11.314 11.8169 11.3138 11.8169 11.3136C11.8169 11.3134 11.8169 11.3133 11.8169 11.3131C11.8169 11.3129 11.8169 11.3127 11.8169 11.3126C11.8169 11.3124 11.8169 11.3122 11.8169 11.312C11.8169 11.3118 11.8169 11.3117 11.8169 11.3115C11.8169 11.3113 11.8169 11.3111 11.8169 11.311C11.8169 11.3108 11.8169 11.3106 11.8169 11.3104C11.8169 11.3103 11.8169 11.3101 11.8169 11.3099C11.8169 11.3097 11.8169 11.3095 11.8169 11.3094C11.8169 11.3092 11.8169 11.309 11.8169 11.3088C11.8169 11.3087 11.8169 11.3085 11.8169 11.3083C11.8169 11.3081 11.8169 11.308 11.8169 11.3078C11.8169 11.3076 11.8169 11.3074 11.8169 11.3072C11.8169 11.3071 11.8169 11.3069 11.8169 11.3067C11.8169 11.3065 11.8169 11.3064 11.8169 11.3062C11.8169 11.306 11.8169 11.3058 11.8169 11.3057C11.8169 11.3055 11.8169 11.3053 11.8169 11.3051C11.8169 11.305 11.8169 11.3048 11.8169 11.3046C11.8169 11.3044 11.8169 11.3043 11.8169 11.3041C11.8169 11.3039 11.8169 11.3037 11.8169 11.3035C11.8169 11.3034 11.8169 11.3032 11.8169 11.303C11.8169 11.3028 11.8169 11.3027 11.8169 11.3025C11.8169 11.3023 11.8169 11.3021 11.8169 11.302H9.81694C9.81694 11.3021 9.81694 11.3023 9.81694 11.3025C9.81694 11.3027 9.81694 11.3028 9.81694 11.303C9.81694 11.3032 9.81694 11.3034 9.81694 11.3035C9.81694 11.3037 9.81694 11.3039 9.81694 11.3041C9.81694 11.3043 9.81694 11.3044 9.81694 11.3046C9.81694 11.3048 9.81694 11.305 9.81694 11.3051C9.81694 11.3053 9.81694 11.3055 9.81694 11.3057C9.81694 11.3058 9.81694 11.306 9.81694 11.3062C9.81694 11.3064 9.81694 11.3065 9.81694 11.3067C9.81694 11.3069 9.81694 11.3071 9.81694 11.3072C9.81694 11.3074 9.81694 11.3076 9.81694 11.3078C9.81694 11.308 9.81694 11.3081 9.81694 11.3083C9.81694 11.3085 9.81694 11.3087 9.81694 11.3088C9.81694 11.309 9.81694 11.3092 9.81694 11.3094C9.81694 11.3095 9.81694 11.3097 9.81694 11.3099C9.81694 11.3101 9.81694 11.3103 9.81694 11.3104C9.81694 11.3106 9.81694 11.3108 9.81694 11.311C9.81694 11.3111 9.81694 11.3113 9.81694 11.3115C9.81694 11.3117 9.81694 11.3118 9.81694 11.312C9.81694 11.3122 9.81694 11.3124 9.81694 11.3126C9.81694 11.3127 9.81694 11.3129 9.81694 11.3131C9.81694 11.3133 9.81694 11.3134 9.81694 11.3136C9.81694 11.3138 9.81694 11.314 9.81694 11.3142C9.81694 11.3143 9.81694 11.3145 9.81694 11.3147C9.81694 11.3149 9.81694 11.315 9.81694 11.3152C9.81694 11.3154 9.81694 11.3156 9.81694 11.3157C9.81694 11.3159 9.81694 11.3161 9.81694 11.3163C9.81694 11.3165 9.81694 11.3166 9.81694 11.3168C9.81694 11.317 9.81694 11.3172 9.81694 11.3174C9.81694 11.3175 9.81694 11.3177 9.81694 11.3179C9.81694 11.3181 9.81694 11.3182 9.81694 11.3184C9.81694 11.3186 9.81694 11.3188 9.81694 11.319C9.81694 11.3191 9.81694 11.3193 9.81694 11.3195C9.81694 11.3197 9.81694 11.3198 9.81694 11.32C9.81694 11.3202 9.81694 11.3204 9.81694 11.3206C9.81694 11.3207 9.81694 11.3209 9.81694 11.3211C9.81694 11.3213 9.81694 11.3214 9.81694 11.3216C9.81694 11.3218 9.81694 11.322 9.81694 11.3222C9.81694 11.3223 9.81694 11.3225 9.81694 11.3227C9.81694 11.3229 9.81694 11.3231 9.81694 11.3232C9.81694 11.3234 9.81694 11.3236 9.81694 11.3238C9.81694 11.3239 9.81694 11.3241 9.81694 11.3243C9.81694 11.3245 9.81694 11.3247 9.81694 11.3248C9.81694 11.325 9.81694 11.3252 9.81694 11.3254C9.81694 11.3256 9.81694 11.3257 9.81694 11.3259C9.81694 11.3261 9.81694 11.3263 9.81694 11.3265C9.81694 11.3266 9.81694 11.3268 9.81694 11.327C9.81694 11.3272 9.81694 11.3274 9.81694 11.3275C9.81694 11.3277 9.81694 11.3279 9.81694 11.3281C9.81694 11.3282 9.81694 11.3284 9.81694 11.3286C9.81694 11.3288 9.81694 11.329 9.81694 11.3291C9.81694 11.3293 9.81694 11.3295 9.81694 11.3297C9.81694 11.3299 9.81694 11.33 9.81694 11.3302C9.81694 11.3304 9.81694 11.3306 9.81694 11.3308C9.81694 11.3309 9.81694 11.3311 9.81694 11.3313C9.81694 11.3315 9.81694 11.3317 9.81694 11.3318C9.81694 11.332 9.81694 11.3322 9.81694 11.3324C9.81694 11.3326 9.81694 11.3327 9.81694 11.3329C9.81694 11.3331 9.81694 11.3333 9.81694 11.3335C9.81694 11.3336 9.81694 11.3338 9.81694 11.334C9.81694 11.3342 9.81694 11.3344 9.81694 11.3345C9.81694 11.3347 9.81694 11.3349 9.81694 11.3351C9.81694 11.3353 9.81694 11.3354 9.81694 11.3356C9.81694 11.3358 9.81694 11.336 9.81694 11.3362C9.81694 11.3363 9.81694 11.3365 9.81694 11.3367C9.81694 11.3369 9.81694 11.3371 9.81694 11.3372C9.81694 11.3374 9.81694 11.3376 9.81694 11.3378C9.81694 11.338 9.81694 11.3381 9.81694 11.3383C9.81694 11.3385 9.81694 11.3387 9.81694 11.3389C9.81694 11.3391 9.81694 11.3392 9.81694 11.3394C9.81694 11.3396 9.81694 11.3398 9.81694 11.34C9.81694 11.3401 9.81694 11.3403 9.81694 11.3405C9.81694 11.3407 9.81694 11.3409 9.81694 11.341C9.81694 11.3412 9.81694 11.3414 9.81694 11.3416C9.81694 11.3418 9.81694 11.3419 9.81694 11.3421C9.81694 11.3423 9.81694 11.3425 9.81694 11.3427C9.81694 11.3429 9.81694 11.343 9.81694 11.3432C9.81694 11.3434 9.81694 11.3436 9.81694 11.3438C9.81694 11.3439 9.81694 11.3441 9.81694 11.3443C9.81694 11.3445 9.81694 11.3447 9.81694 11.3448C9.81694 11.345 9.81694 11.3452 9.81694 11.3454C9.81694 11.3456 9.81694 11.3458 9.81694 11.3459C9.81694 11.3461 9.81694 11.3463 9.81694 11.3465C9.81694 11.3467 9.81694 11.3468 9.81694 11.347C9.81694 11.3472 9.81694 11.3474 9.81694 11.3476C9.81694 11.3477 9.81694 11.3479 9.81694 11.3481C9.81694 11.3483 9.81694 11.3485 9.81694 11.3487C9.81694 11.3488 9.81694 11.349 9.81694 11.3492C9.81694 11.3494 9.81694 11.3496 9.81694 11.3498C9.81694 11.3499 9.81694 11.3501 9.81694 11.3503C9.81694 11.3505 9.81694 11.3507 9.81694 11.3508C9.81694 11.351 9.81694 11.3512 9.81694 11.3514C9.81694 11.3516 9.81694 11.3518 9.81694 11.3519C9.81694 11.3521 9.81694 11.3523 9.81694 11.3525C9.81694 11.3527 9.81694 11.3528 9.81694 11.353C9.81694 11.3532 9.81694 11.3534 9.81694 11.3536C9.81694 11.3538 9.81694 11.3539 9.81694 11.3541C9.81694 11.3543 9.81694 11.3545 9.81694 11.3547C9.81694 11.3549 9.81694 11.355 9.81694 11.3552C9.81694 11.3554 9.81694 11.3556 9.81694 11.3558C9.81694 11.3559 9.81694 11.3561 9.81694 11.3563C9.81694 11.3565 9.81694 11.3567 9.81694 11.3569C9.81694 11.357 9.81694 11.3572 9.81694 11.3574C9.81694 11.3576 9.81694 11.3578 9.81694 11.358C9.81694 11.3581 9.81694 11.3583 9.81694 11.3585C9.81694 11.3587 9.81694 11.3589 9.81694 11.3591C9.81694 11.3592 9.81694 11.3594 9.81694 11.3596C9.81694 11.3598 9.81694 11.36 9.81694 11.3602C9.81694 11.3603 9.81694 11.3605 9.81694 11.3607C9.81694 11.3609 9.81694 11.3611 9.81694 11.3613C9.81694 11.3614 9.81694 11.3616 9.81694 11.3618C9.81694 11.362 9.81694 11.3622 9.81694 11.3624C9.81694 11.3625 9.81694 11.3627 9.81694 11.3629C9.81694 11.3631 9.81694 11.3633 9.81694 11.3635C9.81694 11.3636 9.81694 11.3638 9.81694 11.364C9.81694 11.3642 9.81694 11.3644 9.81694 11.3646C9.81694 11.3647 9.81694 11.3649 9.81694 11.3651C9.81694 11.3653 9.81694 11.3655 9.81694 11.3657C9.81694 11.3658 9.81694 11.366 9.81694 11.3662C9.81694 11.3664 9.81694 11.3666 9.81694 11.3668C9.81694 11.3669 9.81694 11.3671 9.81694 11.3673C9.81694 11.3675 9.81694 11.3677 9.81694 11.3679C9.81694 11.3681 9.81694 11.3682 9.81694 11.3684C9.81694 11.3686 9.81694 11.3688 9.81694 11.369C9.81694 11.3692 9.81694 11.3693 9.81694 11.3695C9.81694 11.3697 9.81694 11.3699 9.81694 11.3701C9.81694 11.3703 9.81694 11.3704 9.81694 11.3706C9.81694 11.3708 9.81694 11.371 9.81694 11.3712C9.81694 11.3714 9.81694 11.3716 9.81694 11.3717C9.81694 11.3719 9.81694 11.3721 9.81694 11.3723C9.81694 11.3725 9.81694 11.3727 9.81694 11.3728C9.81694 11.373 9.81694 11.3732 9.81694 11.3734C9.81694 11.3736 9.81694 11.3738 9.81694 11.3739C9.81694 11.3741 9.81694 11.3743 9.81694 11.3745C9.81694 11.3747 9.81694 11.3749 9.81694 11.3751C9.81694 11.3752 9.81694 11.3754 9.81694 11.3756C9.81694 11.3758 9.81694 11.376 9.81694 11.3762C9.81694 11.3763 9.81694 11.3765 9.81694 11.3767C9.81694 11.3769 9.81694 11.3771 9.81694 11.3773C9.81694 11.3775 9.81694 11.3776 9.81694 11.3778C9.81694 11.378 9.81694 11.3782 9.81694 11.3784C9.81694 11.3786 9.81694 11.3788 9.81694 11.3789C9.81694 11.3791 9.81694 11.3793 9.81694 11.3795C9.81694 11.3797 9.81694 11.3799 9.81694 11.3801C9.81694 11.3802 9.81694 11.3804 9.81694 11.3806C9.81694 11.3808 9.81694 11.381 9.81694 11.3812C9.81694 11.3813 9.81694 11.3815 9.81694 11.3817C9.81694 11.3819 9.81694 11.3821 9.81694 11.3823C9.81694 11.3825 9.81694 11.3826 9.81694 11.3828C9.81694 11.383 9.81694 11.3832 9.81694 11.3834C9.81694 11.3836 9.81694 11.3838 9.81694 11.3839C9.81694 11.3841 9.81694 11.3843 9.81694 11.3845C9.81694 11.3847 9.81694 11.3849 9.81694 11.3851C9.81694 11.3852 9.81694 11.3854 9.81694 11.3856C9.81694 11.3858 9.81694 11.386 9.81694 11.3862C9.81694 11.3864 9.81694 11.3865 9.81694 11.3867C9.81694 11.3869 9.81694 11.3871 9.81694 11.3873C9.81694 11.3875 9.81694 11.3877 9.81694 11.3878C9.81694 11.388 9.81694 11.3882 9.81694 11.3884C9.81694 11.3886 9.81694 11.3888 9.81694 11.389C9.81694 11.3891 9.81694 11.3893 9.81694 11.3895C9.81694 11.3897 9.81694 11.3899 9.81694 11.3901C9.81694 11.3903 9.81694 11.3905 9.81694 11.3906C9.81694 11.3908 9.81694 11.391 9.81694 11.3912C9.81694 11.3914 9.81694 11.3916 9.81694 11.3918C9.81694 11.3919 9.81694 11.3921 9.81694 11.3923C9.81694 11.3925 9.81694 11.3927 9.81694 11.3929C9.81694 11.3931 9.81694 11.3932 9.81694 11.3934C9.81694 11.3936 9.81694 11.3938 9.81694 11.394C9.81694 11.3942 9.81694 11.3944 9.81694 11.3946C9.81694 11.3947 9.81694 11.3949 9.81694 11.3951C9.81694 11.3953 9.81694 11.3955 9.81694 11.3957C9.81694 11.3959 9.81694 11.396 9.81694 11.3962C9.81694 11.3964 9.81694 11.3966 9.81694 11.3968C9.81694 11.397 9.81694 11.3972 9.81694 11.3974C9.81694 11.3975 9.81694 11.3977 9.81694 11.3979C9.81694 11.3981 9.81694 11.3983 9.81694 11.3985C9.81694 11.3987 9.81694 11.3988 9.81694 11.399C9.81694 11.3992 9.81694 11.3994 9.81694 11.3996C9.81694 11.3998 9.81694 11.4 9.81694 11.4002C9.81694 11.4003 9.81694 11.4005 9.81694 11.4007C9.81694 11.4009 9.81694 11.4011 9.81694 11.4013C9.81694 11.4015 9.81694 11.4017 9.81694 11.4018C9.81694 11.402 9.81694 11.4022 9.81694 11.4024C9.81694 11.4026 9.81694 11.4028 9.81694 11.403C9.81694 11.4032 9.81694 11.4033 9.81694 11.4035C9.81694 11.4037 9.81694 11.4039 9.81694 11.4041C9.81694 11.4043 9.81694 11.4045 9.81694 11.4047C9.81694 11.4048 9.81694 11.405 9.81694 11.4052C9.81694 11.4054 9.81694 11.4056 9.81694 11.4058C9.81694 11.406 9.81694 11.4062 9.81694 11.4063C9.81694 11.4065 9.81694 11.4067 9.81694 11.4069C9.81694 11.4071 9.81694 11.4073 9.81694 11.4075C9.81694 11.4077 9.81694 11.4078 9.81694 11.408C9.81694 11.4082 9.81694 11.4084 9.81694 11.4086C9.81694 11.4088 9.81694 11.409 9.81694 11.4092C9.81694 11.4093 9.81694 11.4095 9.81694 11.4097C9.81694 11.4099 9.81694 11.4101 9.81694 11.4103C9.81694 11.4105 9.81694 11.4107 9.81694 11.4108C9.81694 11.411 9.81694 11.4112 9.81694 11.4114C9.81694 11.4116 9.81694 11.4118 9.81694 11.412C9.81694 11.4122 9.81694 11.4124 9.81694 11.4125C9.81694 11.4127 9.81694 11.4129 9.81694 11.4131C9.81694 11.4133 9.81694 11.4135 9.81694 11.4137C9.81694 11.4139 9.81694 11.414 9.81694 11.4142C9.81694 11.4144 9.81694 11.4146 9.81694 11.4148C9.81694 11.415 9.81694 11.4152 9.81694 11.4154C9.81694 11.4156 9.81694 11.4157 9.81694 11.4159C9.81694 11.4161 9.81694 11.4163 9.81694 11.4165C9.81694 11.4167 9.81694 11.4169 9.81694 11.4171C9.81694 11.4173 9.81694 11.4174 9.81694 11.4176C9.81694 11.4178 9.81694 11.418 9.81694 11.4182C9.81694 11.4184 9.81694 11.4186 9.81694 11.4188C9.81694 11.4189 9.81694 11.4191 9.81694 11.4193C9.81694 11.4195 9.81694 11.4197 9.81694 11.4199C9.81694 11.4201 9.81694 11.4203 9.81694 11.4205C9.81694 11.4206 9.81694 11.4208 9.81694 11.421C9.81694 11.4212 9.81694 11.4214 9.81694 11.4216C9.81694 11.4218 9.81694 11.422 9.81694 11.4222C9.81694 11.4223 9.81694 11.4225 9.81694 11.4227C9.81694 11.4229 9.81694 11.4231 9.81694 11.4233C9.81694 11.4235 9.81694 11.4237 9.81694 11.4239C9.81694 11.424 9.81694 11.4242 9.81694 11.4244C9.81694 11.4246 9.81694 11.4248 9.81694 11.425C9.81694 11.4252 9.81694 11.4254 9.81694 11.4256C9.81694 11.4257 9.81694 11.4259 9.81694 11.4261C9.81694 11.4263 9.81694 11.4265 9.81694 11.4267C9.81694 11.4269 9.81694 11.4271 9.81694 11.4273C9.81694 11.4275 9.81694 11.4276 9.81694 11.4278C9.81694 11.428 9.81694 11.4282 9.81694 11.4284C9.81694 11.4286 9.81694 11.4288 9.81694 11.429C9.81694 11.4292 9.81694 11.4293 9.81694 11.4295C9.81694 11.4297 9.81694 11.4299 9.81694 11.4301C9.81694 11.4303 9.81694 11.4305 9.81694 11.4307C9.81694 11.4309 9.81694 11.4311 9.81694 11.4312C9.81694 11.4314 9.81694 11.4316 9.81694 11.4318C9.81694 11.432 9.81694 11.4322 9.81694 11.4324C9.81694 11.4326 9.81694 11.4328 9.81694 11.4329C9.81694 11.4331 9.81694 11.4333 9.81694 11.4335C9.81694 11.4337 9.81694 11.4339 9.81694 11.4341C9.81694 11.4343 9.81694 11.4345 9.81694 11.4347C9.81694 11.4348 9.81694 11.435 9.81694 11.4352C9.81694 11.4354 9.81694 11.4356 9.81694 11.4358C9.81694 11.436 9.81694 11.4362 9.81694 11.4364C9.81694 11.4366 9.81694 11.4367 9.81694 11.4369C9.81694 11.4371 9.81694 11.4373 9.81694 11.4375C9.81694 11.4377 9.81694 11.4379 9.81694 11.4381C9.81694 11.4383 9.81694 11.4385 9.81694 11.4386C9.81694 11.4388 9.81694 11.439 9.81694 11.4392C9.81694 11.4394 9.81694 11.4396 9.81694 11.4398C9.81694 11.44 9.81694 11.4402 9.81694 11.4404C9.81694 11.4405 9.81694 11.4407 9.81694 11.4409C9.81694 11.4411 9.81694 11.4413 9.81694 11.4415C9.81694 11.4417 9.81694 11.4419 9.81694 11.4421C9.81694 11.4423 9.81694 11.4425 9.81694 11.4426C9.81694 11.4428 9.81694 11.443 9.81694 11.4432C9.81694 11.4434 9.81694 11.4436 9.81694 11.4438C9.81694 11.444 9.81694 11.4442 9.81694 11.4444C9.81694 11.4445 9.81694 11.4447 9.81694 11.4449C9.81694 11.4451 9.81694 11.4453 9.81694 11.4455C9.81694 11.4457 9.81694 11.4459 9.81694 11.4461C9.81694 11.4463 9.81694 11.4465 9.81694 11.4466C9.81694 11.4468 9.81694 11.447 9.81694 11.4472C9.81694 11.4474 9.81694 11.4476 9.81694 11.4478C9.81694 11.448 9.81694 11.4482 9.81694 11.4484C9.81694 11.4485 9.81694 11.4487 9.81694 11.4489C9.81694 11.4491 9.81694 11.4493 9.81694 11.4495C9.81694 11.4497 9.81694 11.4499 9.81694 11.4501C9.81694 11.4503 9.81694 11.4505 9.81694 11.4506C9.81694 11.4508 9.81694 11.451 9.81694 11.4512C9.81694 11.4514 9.81694 11.4516 9.81694 11.4518C9.81694 11.452 9.81694 11.4522 9.81694 11.4524C9.81694 11.4526 9.81694 11.4527 9.81694 11.4529C9.81694 11.4531 9.81694 11.4533 9.81694 11.4535C9.81694 11.4537 9.81694 11.4539 9.81694 11.4541C9.81694 11.4543 9.81694 11.4545 9.81694 11.4547C9.81694 11.4549 9.81694 11.455 9.81694 11.4552C9.81694 11.4554 9.81694 11.4556 9.81694 11.4558C9.81694 11.456 9.81694 11.4562 9.81694 11.4564C9.81694 11.4566 9.81694 11.4568 9.81694 11.457C9.81694 11.4571 9.81694 11.4573 9.81694 11.4575C9.81694 11.4577 9.81694 11.4579 9.81694 11.4581C9.81694 11.4583 9.81694 11.4585 9.81694 11.4587C9.81694 11.4589 9.81694 11.4591 9.81694 11.4593C9.81694 11.4594 9.81694 11.4596 9.81694 11.4598C9.81694 11.46 9.81694 11.4602 9.81694 11.4604C9.81694 11.4606 9.81694 11.4608 9.81694 11.461C9.81694 11.4612 9.81694 11.4614 9.81694 11.4616C9.81694 11.4617 9.81694 11.4619 9.81694 11.4621C9.81694 11.4623 9.81694 11.4625 9.81694 11.4627C9.81694 11.4629 9.81694 11.4631 9.81694 11.4633C9.81694 11.4635 9.81694 11.4637 9.81694 11.4639C9.81694 11.464 9.81694 11.4642 9.81694 11.4644C9.81694 11.4646 9.81694 11.4648 9.81694 11.465C9.81694 11.4652 9.81694 11.4654 9.81694 11.4656C9.81694 11.4658 9.81694 11.466 9.81694 11.4662C9.81694 11.4663 9.81694 11.4665 9.81694 11.4667C9.81694 11.4669 9.81694 11.4671 9.81694 11.4673C9.81694 11.4675 9.81694 11.4677 9.81694 11.4679C9.81694 11.4681 9.81694 11.4683 9.81694 11.4685C9.81694 11.4686 9.81694 11.4688 9.81694 11.469C9.81694 11.4692 9.81694 11.4694 9.81694 11.4696C9.81694 11.4698 9.81694 11.47 9.81694 11.4702C9.81694 11.4704 9.81694 11.4706 9.81694 11.4708C9.81694 11.471 9.81694 11.4711 9.81694 11.4713C9.81694 11.4715 9.81694 11.4717 9.81694 11.4719C9.81694 11.4721 9.81694 11.4723 9.81694 11.4725C9.81694 11.4727 9.81694 11.4729 9.81694 11.4731C9.81694 11.4733 9.81694 11.4734 9.81694 11.4736C9.81694 11.4738 9.81694 11.474 9.81694 11.4742C9.81694 11.4744 9.81694 11.4746 9.81694 11.4748C9.81694 11.475 9.81694 11.4752 9.81694 11.4754C9.81694 11.4756 9.81694 11.4758 9.81694 11.4759C9.81694 11.4761 9.81694 11.4763 9.81694 11.4765C9.81694 11.4767 9.81694 11.4769 9.81694 11.4771C9.81694 11.4773 9.81694 11.4775 9.81694 11.4777C9.81694 11.4779 9.81694 11.4781 9.81694 11.4783C9.81694 11.4784 9.81694 11.4786 9.81694 11.4788C9.81694 11.479 9.81694 11.4792 9.81694 11.4794C9.81694 11.4796 9.81694 11.4798 9.81694 11.48C9.81694 11.4802 9.81694 11.4804 9.81694 11.4806C9.81694 11.4808 9.81694 11.481 9.81694 11.4811C9.81694 11.4813 9.81694 11.4815 9.81694 11.4817C9.81694 11.4819 9.81694 11.4821 9.81694 11.4823C9.81694 11.4825 9.81694 11.4827 9.81694 11.4829C9.81694 11.4831 9.81694 11.4833 9.81694 11.4835C9.81694 11.4837 9.81694 11.4838 9.81694 11.484C9.81694 11.4842 9.81694 11.4844 9.81694 11.4846C9.81694 11.4848 9.81694 11.485 9.81694 11.4852C9.81694 11.4854 9.81694 11.4856 9.81694 11.4858C9.81694 11.486 9.81694 11.4862 9.81694 11.4864C9.81694 11.4865 9.81694 11.4867 9.81694 11.4869C9.81694 11.4871 9.81694 11.4873 9.81694 11.4875C9.81694 11.4877 9.81694 11.4879 9.81694 11.4881C9.81694 11.4883 9.81694 11.4885 9.81694 11.4887C9.81694 11.4889 9.81694 11.4891 9.81694 11.4892C9.81694 11.4894 9.81694 11.4896 9.81694 11.4898C9.81694 11.49 9.81694 11.4902 9.81694 11.4904C9.81694 11.4906 9.81694 11.4908 9.81694 11.491C9.81694 11.4912 9.81694 11.4914 9.81694 11.4916C9.81694 11.4918 9.81694 11.4919 9.81694 11.4921C9.81694 11.4923 9.81694 11.4925 9.81694 11.4927C9.81694 11.4929 9.81694 11.4931 9.81694 11.4933C9.81694 11.4935 9.81694 11.4937 9.81694 11.4939C9.81694 11.4941 9.81694 11.4943 9.81694 11.4945C9.81694 11.4947 9.81694 11.4948 9.81694 11.495C9.81694 11.4952 9.81694 11.4954 9.81694 11.4956C9.81694 11.4958 9.81694 11.496 9.81694 11.4962C9.81694 11.4964 9.81694 11.4966 9.81694 11.4968C9.81694 11.497 9.81694 11.4972 9.81694 11.4974C9.81694 11.4976 9.81694 11.4977 9.81694 11.4979C9.81694 11.4981 9.81694 11.4983 9.81694 11.4985C9.81694 11.4987 9.81694 11.4989 9.81694 11.4991C9.81694 11.4993 9.81694 11.4995 9.81694 11.4997C9.81694 11.4999 9.81694 11.5001 9.81694 11.5003C9.81694 11.5005 9.81694 11.5006 9.81694 11.5008C9.81694 11.501 9.81694 11.5012 9.81694 11.5014C9.81694 11.5016 9.81694 11.5018 9.81694 11.502C9.81694 11.5022 9.81694 11.5024 9.81694 11.5026C9.81694 11.5028 9.81694 11.503 9.81694 11.5032C9.81694 11.5034 9.81694 11.5035 9.81694 11.5037C9.81694 11.5039 9.81694 11.5041 9.81694 11.5043C9.81694 11.5045 9.81694 11.5047 9.81694 11.5049C9.81694 11.5051 9.81694 11.5053 9.81694 11.5055C9.81694 11.5057 9.81694 11.5059 9.81694 11.5061C9.81694 11.5063 9.81694 11.5065 9.81694 11.5066C9.81694 11.5068 9.81694 11.507 9.81694 11.5072C9.81694 11.5074 9.81694 11.5076 9.81694 11.5078C9.81694 11.508 9.81694 11.5082 9.81694 11.5084C9.81694 11.5086 9.81694 11.5088 9.81694 11.509C9.81694 11.5092 9.81694 11.5094 9.81694 11.5096C9.81694 11.5097 9.81694 11.5099 9.81694 11.5101C9.81694 11.5103 9.81694 11.5105 9.81694 11.5107C9.81694 11.5109 9.81694 11.5111 9.81694 11.5113C9.81694 11.5115 9.81694 11.5117 9.81694 11.5119C9.81694 11.5121 9.81694 11.5123 9.81694 11.5125C9.81694 11.5127 9.81694 11.5129 9.81694 11.513C9.81694 11.5132 9.81694 11.5134 9.81694 11.5136C9.81694 11.5138 9.81694 11.514 9.81694 11.5142C9.81694 11.5144 9.81694 11.5146 9.81694 11.5148C9.81694 11.515 9.81694 11.5152 9.81694 11.5154C9.81694 11.5156 9.81694 11.5158 9.81694 11.516C9.81694 11.5161 9.81694 11.5163 9.81694 11.5165C9.81694 11.5167 9.81694 11.5169 9.81694 11.5171C9.81694 11.5173 9.81694 11.5175 9.81694 11.5177C9.81694 11.5179 9.81694 11.5181 9.81694 11.5183C9.81694 11.5185 9.81694 11.5187 9.81694 11.5189C9.81694 11.5191 9.81694 11.5193 9.81694 11.5194C9.81694 11.5196 9.81694 11.5198 9.81694 11.52C9.81694 11.5202 9.81694 11.5204 9.81694 11.5206C9.81694 11.5208 9.81694 11.521 9.81694 11.5212C9.81694 11.5214 9.81694 11.5216 9.81694 11.5218C9.81694 11.522 9.81694 11.5222 9.81694 11.5224C9.81694 11.5226 9.81694 11.5228 9.81694 11.5229C9.81694 11.5231 9.81694 11.5233 9.81694 11.5235C9.81694 11.5237 9.81694 11.5239 9.81694 11.5241C9.81694 11.5243 9.81694 11.5245 9.81694 11.5247C9.81694 11.5249 9.81694 11.5251 9.81694 11.5253C9.81694 11.5255 9.81694 11.5257 9.81694 11.5259C9.81694 11.5261 9.81694 11.5262 9.81694 11.5264C9.81694 11.5266 9.81694 11.5268 9.81694 11.527C9.81694 11.5272 9.81694 11.5274 9.81694 11.5276C9.81694 11.5278 9.81694 11.528 9.81694 11.5282C9.81694 11.5284 9.81694 11.5286 9.81694 11.5288C9.81694 11.529 9.81694 11.5292 9.81694 11.5294C9.81694 11.5296 9.81694 11.5297 9.81694 11.5299C9.81694 11.5301 9.81694 11.5303 9.81694 11.5305C9.81694 11.5307 9.81694 11.5309 9.81694 11.5311C9.81694 11.5313 9.81694 11.5315 9.81694 11.5317C9.81694 11.5319 9.81694 11.5321 9.81694 11.5323C9.81694 11.5325 9.81694 11.5327 9.81694 11.5329C9.81694 11.5331 9.81694 11.5332 9.81694 11.5334C9.81694 11.5336 9.81694 11.5338 9.81694 11.534C9.81694 11.5342 9.81694 11.5344 9.81694 11.5346C9.81694 11.5348 9.81694 11.535 9.81694 11.5352C9.81694 11.5354 9.81694 11.5356 9.81694 11.5358C9.81694 11.536 9.81694 11.5362 9.81694 11.5364C9.81694 11.5366 9.81694 11.5368 9.81694 11.5369C9.81694 11.5371 9.81694 11.5373 9.81694 11.5375C9.81694 11.5377 9.81694 11.5379 9.81694 11.5381C9.81694 11.5383 9.81694 11.5385 9.81694 11.5387C9.81694 11.5389 9.81694 11.5391 9.81694 11.5393C9.81694 11.5395 9.81694 11.5397 9.81694 11.5399C9.81694 11.5401 9.81694 11.5403 9.81694 11.5405C9.81694 11.5406 9.81694 11.5408 9.81694 11.541C9.81694 11.5412 9.81694 11.5414 9.81694 11.5416C9.81694 11.5418 9.81694 11.542 9.81694 11.5422C9.81694 11.5424 9.81694 11.5426 9.81694 11.5428C9.81694 11.543 9.81694 11.5432 9.81694 11.5434C9.81694 11.5436 9.81694 11.5438 9.81694 11.544C9.81694 11.5442 9.81694 11.5443 9.81694 11.5445C9.81694 11.5447 9.81694 11.5449 9.81694 11.5451C9.81694 11.5453 9.81694 11.5455 9.81694 11.5457C9.81694 11.5459 9.81694 11.5461 9.81694 11.5463C9.81694 11.5465 9.81694 11.5467 9.81694 11.5469C9.81694 11.5471 9.81694 11.5473 9.81694 11.5475C9.81694 11.5477 9.81694 11.5479 9.81694 11.548C9.81694 11.5482 9.81694 11.5484 9.81694 11.5486C9.81694 11.5488 9.81694 11.549 9.81694 11.5492C9.81694 11.5494 9.81694 11.5496 9.81694 11.5498C9.81694 11.55 9.81694 11.5502 9.81694 11.5504C9.81694 11.5506 9.81694 11.5508 9.81694 11.551C9.81694 11.5512 9.81694 11.5514 9.81694 11.5516C9.81694 11.5518 9.81694 11.5519 9.81694 11.5521C9.81694 11.5523 9.81694 11.5525 9.81694 11.5527C9.81694 11.5529 9.81694 11.5531 9.81694 11.5533C9.81694 11.5535 9.81694 11.5537 9.81694 11.5539C9.81694 11.5541 9.81694 11.5543 9.81694 11.5545C9.81694 11.5547 9.81694 11.5549 9.81694 11.5551C9.81694 11.5553 9.81694 11.5555 9.81694 11.5557C9.81694 11.5558 9.81694 11.556 9.81694 11.5562C9.81694 11.5564 9.81694 11.5566 9.81694 11.5568C9.81694 11.557 9.81694 11.5572 9.81694 11.5574C9.81694 11.5576 9.81694 11.5578 9.81694 11.558C9.81694 11.5582 9.81694 11.5584 9.81694 11.5586C9.81694 11.5588 9.81694 11.559 9.81694 11.5592C9.81694 11.5594 9.81694 11.5596 9.81694 11.5597C9.81694 11.5599 9.81694 11.5601 9.81694 11.5603C9.81694 11.5605 9.81694 11.5607 9.81694 11.5609C9.81694 11.5611 9.81694 11.5613 9.81694 11.5615C9.81694 11.5617 9.81694 11.5619 9.81694 11.5621C9.81694 11.5623 9.81694 11.5625 9.81694 11.5627C9.81694 11.5629 9.81694 11.5631 9.81694 11.5633C9.81694 11.5635 9.81694 11.5637 9.81694 11.5638C9.81694 11.564 9.81694 11.5642 9.81694 11.5644C9.81694 11.5646 9.81694 11.5648 9.81694 11.565C9.81694 11.5652 9.81694 11.5654 9.81694 11.5656C9.81694 11.5658 9.81694 11.566 9.81694 11.5662C9.81694 11.5664 9.81694 11.5666 9.81694 11.5668C9.81694 11.567 9.81694 11.5672 9.81694 11.5674C9.81694 11.5676 9.81694 11.5677 9.81694 11.5679C9.81694 11.5681 9.81694 11.5683 9.81694 11.5685C9.81694 11.5687 9.81694 11.5689 9.81694 11.5691C9.81694 11.5693 9.81694 11.5695 9.81694 11.5697C9.81694 11.5699 9.81694 11.5701 9.81694 11.5703C9.81694 11.5705 9.81694 11.5707 9.81694 11.5709C9.81694 11.5711 9.81694 11.5713 9.81694 11.5715C9.81694 11.5717 9.81694 11.5718 9.81694 11.572C9.81694 11.5722 9.81694 11.5724 9.81694 11.5726C9.81694 11.5728 9.81694 11.573 9.81694 11.5732C9.81694 11.5734 9.81694 11.5736 9.81694 11.5738C9.81694 11.574 9.81694 11.5742 9.81694 11.5744C9.81694 11.5746 9.81694 11.5748 9.81694 11.575C9.81694 11.5752 9.81694 11.5754 9.81694 11.5756C9.81694 11.5758 9.81694 11.5759 9.81694 11.5761C9.81694 11.5763 9.81694 11.5765 9.81694 11.5767C9.81694 11.5769 9.81694 11.5771 9.81694 11.5773C9.81694 11.5775 9.81694 11.5777 9.81694 11.5779C9.81694 11.5781 9.81694 11.5783 9.81694 11.5785C9.81694 11.5787 9.81694 11.5789 9.81694 11.5791C9.81694 11.5793 9.81694 11.5795 9.81694 11.5797C9.81694 11.5799 9.81694 11.58 9.81694 11.5802C9.81694 11.5804 9.81694 11.5806 9.81694 11.5808C9.81694 11.581 9.81694 11.5812 9.81694 11.5814C9.81694 11.5816 9.81694 11.5818 9.81694 11.582C9.81694 11.5822 9.81694 11.5824 9.81694 11.5826C9.81694 11.5828 9.81694 11.583 9.81694 11.5832C9.81694 11.5834 9.81694 11.5836 9.81694 11.5838C9.81694 11.584 9.81694 11.5842 9.81694 11.5843C9.81694 11.5845 9.81694 11.5847 9.81694 11.5849C9.81694 11.5851 9.81694 11.5853 9.81694 11.5855C9.81694 11.5857 9.81694 11.5859 9.81694 11.5861C9.81694 11.5863 9.81694 11.5865 9.81694 11.5867C9.81694 11.5869 9.81694 11.5871 9.81694 11.5873C9.81694 11.5875 9.81694 11.5877 9.81694 11.5879C9.81694 11.5881 9.81694 11.5883 9.81694 11.5884C9.81694 11.5886 9.81694 11.5888 9.81694 11.589C9.81694 11.5892 9.81694 11.5894 9.81694 11.5896C9.81694 11.5898 9.81694 11.59 9.81694 11.5902C9.81694 11.5904 9.81694 11.5906 9.81694 11.5908C9.81694 11.591 9.81694 11.5912 9.81694 11.5914C9.81694 11.5916 9.81694 11.5918 9.81694 11.592H11.8169ZM11.1587 12.2418C12.0532 11.9165 12.7807 11.3728 13.2729 10.5959C13.7586 9.82929 13.9669 8.91235 13.9669 7.91196H11.9669C11.9669 8.64157 11.8153 9.15963 11.5835 9.52553C11.3582 9.88108 11.0107 10.1674 10.4752 10.3622L11.1587 12.2418ZM13.9669 7.91196C13.9669 7.11541 13.7598 6.35771 13.342 5.69732L11.6519 6.7666C11.8541 7.08621 11.9669 7.46851 11.9669 7.91196H13.9669ZM13.4892 6.356C13.5572 5.81212 13.5262 5.09319 13.2195 4.30097L11.3544 5.02296C11.5277 5.47073 11.5367 5.8518 11.5047 6.10793L13.4892 6.356ZM13.2177 4.29631C12.9953 3.73033 12.5317 3.30954 11.973 3.12993L11.3609 5.03399C11.3612 5.03408 11.3608 5.03404 11.3599 5.0332C11.3587 5.03206 11.3571 5.02995 11.3562 5.02762L13.2177 4.29631ZM11.9832 3.13328C11.7858 3.06749 11.5386 3.02196 11.237 3.02196V5.02196C11.3353 5.02196 11.3681 5.03643 11.3507 5.03065L11.9832 3.13328ZM11.9437 3.31451L11.9337 3.30451L10.5202 4.71942L10.5302 4.72941L11.9437 3.31451Z" fill="#4FF8CA" mask="url(#path-2-inside-1_18_910)"/>
</svg>
