<svg width="14" height="16" viewBox="0 0 14 16" fill="none" xmlns="http://www.w3.org/2000/svg">
<path d="M13.3153 1.15381H1.4353V15.2338H13.3153V1.15381Z" stroke="#4FF8CA" stroke-linecap="round" stroke-linejoin="round"/>
<path d="M1.70703 5.80371H11.5853" stroke="#4FF8CA" stroke-linecap="round" stroke-linejoin="round"/>
<path d="M1.70703 10.7437H11.5853" stroke="#4FF8CA" stroke-linecap="round" stroke-linejoin="round"/>
<path d="M4.27513 4.11373C4.56231 4.11373 4.79513 3.88092 4.79513 3.59373C4.79513 3.30654 4.56231 3.07373 4.27513 3.07373C3.98794 3.07373 3.75513 3.30654 3.75513 3.59373C3.75513 3.88092 3.98794 4.11373 4.27513 4.11373Z" fill="#4FF8CA"/>
<path d="M4.27513 8.74361C4.56231 8.74361 4.79513 8.5108 4.79513 8.22361C4.79513 7.93643 4.56231 7.70361 4.27513 7.70361C3.98794 7.70361 3.75513 7.93643 3.75513 8.22361C3.75513 8.5108 3.98794 8.74361 4.27513 8.74361Z" fill="#4FF8CA"/>
<path d="M4.27513 13.5537C4.56231 13.5537 4.79513 13.3209 4.79513 13.0337C4.79513 12.7465 4.56231 12.5137 4.27513 12.5137C3.98794 12.5137 3.75513 12.7465 3.75513 13.0337C3.75513 13.3209 3.98794 13.5537 4.27513 13.5537Z" fill="#4FF8CA"/>
</svg>
