<svg width="40" height="39" viewBox="0 0 40 39" fill="none" xmlns="http://www.w3.org/2000/svg">
<path d="M38.3031 13.3421C39.839 17.7905 39.6777 22.6295 37.8576 26.9707C33.7644 36.7252 22.4753 41.3421 12.6915 37.2611C7.95317 35.2857 4.26695 31.5876 2.31633 26.8482C0.365701 22.1088 0.38106 16.8947 2.37008 12.1706C6.46332 2.41618 17.7524 -2.20072 27.5362 1.88022L26.6454 4.00108C18.0365 0.410162 8.09908 4.47579 4.49734 13.0588C2.75406 17.2163 2.7387 21.8026 4.45126 25.9754C6.1715 30.1482 9.4123 33.4022 13.5823 35.1403C22.1912 38.7312 32.1286 34.6656 35.7304 26.0826C37.3354 22.2619 37.4737 17.9973 36.122 14.0848L38.3031 13.3344V13.3421Z" fill="white"/>
<path d="M30.5761 28.8346C29.3365 30.2496 27.7997 31.403 26.0346 32.2134C22.7417 33.728 19.0574 33.8765 15.6501 32.6282C12.2428 31.3799 9.53816 28.8869 8.01736 25.6061C6.49657 22.3254 6.34695 18.655 7.5982 15.2683L9.7602 16.058C8.71838 18.8752 8.84549 21.9201 10.1058 24.6425C11.366 27.3648 13.622 29.4375 16.4425 30.4745C19.263 31.5114 22.327 31.3865 25.0595 30.1314C27.792 28.8763 29.8723 26.6291 30.9128 23.8194C31.9533 21.0097 31.8275 17.9573 30.5672 15.2349C29.3069 12.5126 27.0509 10.4398 24.2304 9.40289C21.629 8.45085 18.7843 8.48198 16.2042 9.4918L15.3558 7.35429C18.4568 6.13249 21.8876 6.09503 25.0229 7.24916C28.4226 8.49614 31.1348 10.9905 32.6556 14.2712C34.1764 17.552 34.326 21.2224 33.0734 24.6167C32.4917 26.1934 31.6411 27.6143 30.5659 28.8483L30.5761 28.8346Z" fill="white"/>
<path fill-rule="evenodd" clip-rule="evenodd" d="M20.2513 14.201C17.1258 14.201 14.5921 16.7261 14.5921 19.841C14.5921 22.9559 17.1258 25.4809 20.2513 25.4809C23.3768 25.4809 25.9105 22.9559 25.9105 19.841C25.9105 16.7261 23.3768 14.201 20.2513 14.201ZM12.3284 19.841C12.3284 15.4802 15.8756 11.9451 20.2513 11.9451C24.627 11.9451 28.1742 15.4802 28.1742 19.841C28.1742 24.2018 24.627 27.7369 20.2513 27.7369C15.8756 27.7369 12.3284 24.2018 12.3284 19.841Z" fill="white"/>
</svg>
