<svg width="18" height="20" viewBox="0 0 18 20" fill="none" xmlns="http://www.w3.org/2000/svg">
<path d="M15.9601 6.6129C16.6777 6.6129 17.2649 7.09569 17.2649 7.81336V16.8299C17.2649 17.8738 16.4168 18.7089 15.3859 18.7089H3.40742C2.2983 18.7089 1.39795 17.8085 1.39795 16.6994V4.14673" stroke="white" stroke-width="1.2" stroke-linecap="round" stroke-linejoin="round"/>
<path d="M15.9607 6.61283H4.06045C2.58596 6.61283 1.3855 5.41236 1.3855 3.93788C1.3855 2.4634 2.58596 1.26294 4.06045 1.26294H10.115" stroke="white" stroke-width="1.2" stroke-linecap="round" stroke-linejoin="round"/>
<path d="M3.57739 3.80737H15.1384" stroke="white" stroke-width="1.2" stroke-linecap="round" stroke-linejoin="round"/>
<path d="M12.9595 12.4587V12.4851" stroke="white" stroke-width="1.2" stroke-linecap="round" stroke-linejoin="round"/>
<path d="M16.9389 14.4814H11.9152C11.4063 14.4814 10.9888 14.0639 10.9888 13.542V11.389C10.9888 10.867 11.4063 10.4495 11.9152 10.4495H16.9389" stroke="white" stroke-width="1.2" stroke-linecap="round" stroke-linejoin="round"/>
</svg>
