<svg width="20" height="21" viewBox="0 0 20 21" fill="none" xmlns="http://www.w3.org/2000/svg">
<path d="M19.3751 12.1301V8.64616H17.5483C17.3657 7.88935 17.0655 7.17168 16.661 6.51926L17.9528 5.22746L15.4867 2.76129L14.1949 4.05309C13.5424 3.64859 12.8378 3.34847 12.068 3.16579V1.35205H8.58402V3.17884C7.82721 3.36152 7.10954 3.66164 6.45711 4.06614L5.1653 2.77434L2.69914 5.2405L3.99095 6.53231C3.58644 7.18473 3.28632 7.88935 3.10364 8.65921H1.27686V12.1432H3.10364C3.28632 12.9 3.58644 13.6176 3.99095 14.2701L2.69914 15.5619L5.1653 18.028L6.45711 16.7362C7.10954 17.1407 7.81416 17.4409 8.58402 17.6235V19.4503H12.068V17.6235C12.8248 17.4409 13.5424 17.1407 14.1949 16.7362L15.4867 18.028L17.9528 15.5619L16.661 14.2701C17.0655 13.6176 17.3657 12.913 17.5483 12.1432H19.3751V12.1301ZM10.3456 13.2914C8.74059 13.2914 7.44879 11.9866 7.44879 10.3947C7.44879 8.80275 8.75364 7.4979 10.3456 7.4979C11.9375 7.4979 13.2423 8.80275 13.2423 10.3947C13.2423 11.9866 11.9375 13.2914 10.3456 13.2914Z" stroke="white" stroke-width="1.2" stroke-linecap="round" stroke-linejoin="round"/>
</svg>
