<svg width="14" height="15" viewBox="0 0 14 15" fill="none" xmlns="http://www.w3.org/2000/svg">
<path d="M11.8355 14.8086H2.66882C1.60215 14.8086 0.702148 13.9542 0.702148 12.8697V3.40486C0.702148 3.17482 0.902148 3.0105 1.10215 3.0105C1.30215 3.0105 1.50215 3.20768 1.50215 3.40486V12.9025C1.50215 13.5269 2.00215 14.0199 2.63548 14.0199H11.8021C12.3688 14.0199 12.8355 13.5598 12.8355 13.0011V6.16543C12.8355 5.83679 12.5355 5.67247 12.2688 5.67247C12.0355 5.67247 11.8688 5.47529 11.8688 5.2781C11.8688 5.08092 12.0688 4.88374 12.2688 4.88374C13.0688 4.88374 13.6688 5.44242 13.6688 6.19829V13.0011C13.6688 14.0199 12.8355 14.8415 11.8021 14.8415L11.8355 14.8086Z" fill="white"/>
<path d="M12.3021 5.67244H3.16882C1.80215 5.67244 0.702148 4.58794 0.702148 3.24052C0.702148 1.8931 1.80215 0.808594 3.16882 0.808594H7.80215C8.03548 0.808594 8.20215 1.00578 8.20215 1.20296C8.20215 1.40014 8.00215 1.59733 7.80215 1.59733H3.16882C2.26882 1.59733 1.53548 2.32033 1.53548 3.20765C1.53548 4.09498 2.26882 4.81798 3.16882 4.81798H12.3021C12.5355 4.81798 12.7021 5.01517 12.7021 5.21235C12.7021 5.40953 12.5021 5.60672 12.3021 5.60672V5.67244Z" fill="white"/>
<path d="M11.6688 3.56925H2.8021C2.56877 3.56925 2.4021 3.37207 2.4021 3.17488C2.4021 2.9777 2.6021 2.78052 2.8021 2.78052H11.6688C11.9021 2.78052 12.0688 2.9777 12.0688 3.17488C12.0688 3.37207 11.8688 3.56925 11.6688 3.56925Z" fill="white"/>
<path d="M13.2688 11.6208H8.3021C8.06877 11.6208 7.9021 11.4236 7.9021 11.2264V8.20296C7.9021 7.97291 8.1021 7.80859 8.3021 7.80859H13.2688C13.5021 7.80859 13.6688 8.00578 13.6688 8.20296C13.6688 8.40014 13.4688 8.59733 13.2688 8.59733H8.7021V10.7992H13.2688C13.5021 10.7992 13.6688 10.9964 13.6688 11.1936C13.6688 11.3908 13.4688 11.5879 13.2688 11.5879V11.6208Z" fill="white"/>
<path d="M10.0021 10.1089C9.76872 10.1089 9.60205 9.91177 9.60205 9.71458C9.60205 9.5174 9.80205 9.28735 10.0021 9.28735C10.2021 9.28735 10.4021 9.45167 10.4021 9.68172C10.4021 9.94463 10.2021 10.1089 10.0021 10.1089Z" fill="white"/>
</svg>
