<svg width="279" height="88" viewBox="0 0 279 88" fill="none" xmlns="http://www.w3.org/2000/svg">
<path d="M110.123 38.0959C107.687 38.0959 105.58 37.5708 103.8 36.5206C102.044 35.447 100.685 33.9651 99.7254 32.0747C98.7887 30.161 98.3203 27.9556 98.3203 25.4584C98.3203 22.9379 98.7887 20.7325 99.7254 18.8422C100.685 16.9285 102.044 15.4348 103.8 14.3613C105.58 13.2877 107.687 12.751 110.123 12.751C113.05 12.751 115.439 13.4744 117.289 14.9214C119.138 16.345 120.309 18.3637 120.801 20.9776H116.164C115.837 19.6006 115.169 18.5154 114.162 17.7219C113.155 16.9284 111.797 16.5317 110.088 16.5317C108.542 16.5317 107.207 16.8934 106.083 17.6169C104.983 18.3171 104.128 19.3439 103.519 20.6975C102.934 22.0278 102.641 23.6147 102.641 25.4584C102.641 27.3021 102.934 28.8891 103.519 30.2194C104.128 31.5263 104.983 32.5415 106.083 33.2649C107.207 33.9651 108.542 34.3151 110.088 34.3151C111.797 34.3151 113.155 33.9534 114.162 33.2299C115.169 32.4831 115.837 31.4563 116.164 30.1493H120.801C120.333 32.6231 119.162 34.5719 117.289 35.9955C115.439 37.3957 113.05 38.0959 110.123 38.0959Z" fill="white"/>
<path d="M142.208 37.6758V13.1711H146.423V37.6758H142.208ZM126.682 37.6758V13.1711H130.897V37.6758H126.682ZM130.265 26.8937V23.463H143.016V26.8937H130.265Z" fill="white"/>
<path d="M153.171 37.6758V13.1711H169.048V16.5667H157.386V23.6031H167.994V26.9287H157.386V34.2801H169.048V37.6758H153.171Z" fill="white"/>
<path d="M186.159 38.0959C183.723 38.0959 181.616 37.5708 179.836 36.5206C178.08 35.447 176.722 33.9651 175.761 32.0747C174.825 30.161 174.356 27.9556 174.356 25.4584C174.356 22.9379 174.825 20.7325 175.761 18.8422C176.722 16.9285 178.08 15.4348 179.836 14.3613C181.616 13.2877 183.723 12.751 186.159 12.751C189.086 12.751 191.475 13.4744 193.325 14.9214C195.175 16.345 196.345 18.3637 196.837 20.9776H192.201C191.873 19.6006 191.205 18.5154 190.198 17.7219C189.191 16.9284 187.833 16.5317 186.124 16.5317C184.578 16.5317 183.243 16.8934 182.119 17.6169C181.019 18.3171 180.164 19.3439 179.555 20.6975C178.97 22.0278 178.677 23.6147 178.677 25.4584C178.677 27.3021 178.97 28.8891 179.555 30.2194C180.164 31.5263 181.019 32.5415 182.119 33.2649C183.243 33.9651 184.578 34.3151 186.124 34.3151C187.833 34.3151 189.191 33.9534 190.198 33.2299C191.205 32.4831 191.873 31.4563 192.201 30.1493H196.837C196.369 32.6231 195.198 34.5719 193.325 35.9955C191.475 37.3957 189.086 38.0959 186.159 38.0959Z" fill="white"/>
<path d="M202.718 37.6758V13.1711H206.933V23.288L216.207 13.1711H221.44L212.343 22.9029L221.651 37.6758H216.523L209.357 26.1236L206.933 28.7491V37.6758H202.718Z" fill="white"/>
<path d="M226.703 37.6758V13.1711H242.58V16.5667H230.918V23.6031H241.526V26.9287H230.918V34.2801H242.58V37.6758H226.703Z" fill="white"/>
<path d="M248.766 37.6758V13.1711H257.583C259.527 13.1711 261.131 13.5095 262.395 14.1863C263.683 14.8397 264.632 15.7266 265.241 16.8468C265.873 17.9436 266.189 19.1922 266.189 20.5925C266.189 21.8994 265.885 23.113 265.276 24.2332C264.667 25.3534 263.719 26.2519 262.431 26.9287C261.143 27.6055 259.492 27.9439 257.478 27.9439H252.982V37.6758H248.766ZM261.588 37.6758L256.424 26.8587H260.99L266.4 37.6758H261.588ZM252.982 24.8283H257.302C258.871 24.8283 260.019 24.4549 260.745 23.7081C261.494 22.9379 261.869 21.9344 261.869 20.6975C261.869 19.4839 261.506 18.5154 260.78 17.792C260.054 17.0451 258.895 16.6717 257.302 16.6717H252.982V24.8283Z" fill="white"/>
<path d="M99.6838 74.8965V50.3918H103.899L115.737 68.1052V50.3918H119.952V74.8965H115.737L103.899 57.2181V74.8965H99.6838Z" fill="white"/>
<path d="M126.653 74.8965V50.3918H142.53V53.7874H130.868V60.8238H141.476V64.1494H130.868V71.5008H142.53V74.8965H126.653Z" fill="white"/>
<path d="M154.442 74.8965V53.7874H147.206V50.3918H165.858V53.7874H158.622V74.8965H154.442Z" fill="white"/>
<path d="M176.042 74.8965L169.508 50.3918H174.004L178.606 70.1006L183.945 50.3918H188.617L193.781 70.1356L198.417 50.3918H202.949L196.239 74.8965H191.251L186.193 56.3429L180.995 74.8965H176.042Z" fill="white"/>
<path d="M218.251 75.3166C215.886 75.3166 213.79 74.7915 211.963 73.7413C210.16 72.6677 208.743 71.1858 207.713 69.2954C206.682 67.3817 206.167 65.1646 206.167 62.6441C206.167 60.147 206.682 57.9532 207.713 56.0629C208.743 54.1492 210.16 52.6555 211.963 51.582C213.79 50.5084 215.886 49.9717 218.251 49.9717C220.663 49.9717 222.782 50.5084 224.609 51.582C226.435 52.6555 227.852 54.1492 228.859 56.0629C229.866 57.9532 230.369 60.147 230.369 62.6441C230.369 65.1646 229.866 67.3817 228.859 69.2954C227.852 71.1858 226.435 72.6677 224.609 73.7413C222.782 74.7915 220.663 75.3166 218.251 75.3166ZM218.286 71.5358C219.855 71.5358 221.225 71.1858 222.396 70.4856C223.566 69.7622 224.468 68.7353 225.1 67.405C225.733 66.0748 226.049 64.4878 226.049 62.6441C226.049 60.8004 225.733 59.2135 225.1 57.8832C224.468 56.553 223.566 55.5378 222.396 54.8376C221.225 54.1141 219.855 53.7524 218.286 53.7524C216.717 53.7524 215.347 54.1141 214.176 54.8376C213.005 55.5378 212.092 56.553 211.436 57.8832C210.804 59.2135 210.488 60.8004 210.488 62.6441C210.488 64.4878 210.804 66.0748 211.436 67.405C212.092 68.7353 213.005 69.7622 214.176 70.4856C215.347 71.1858 216.717 71.5358 218.286 71.5358Z" fill="white"/>
<path d="M236.244 74.8965V50.3918H245.061C247.005 50.3918 248.609 50.7302 249.873 51.407C251.161 52.0604 252.11 52.9473 252.718 54.0675C253.351 55.1644 253.667 56.4129 253.667 57.8132C253.667 59.1201 253.362 60.3337 252.754 61.4539C252.145 62.5741 251.196 63.4726 249.908 64.1494C248.62 64.8262 246.969 65.1646 244.955 65.1646H240.459V74.8965H236.244ZM249.065 74.8965L243.902 64.0794H248.468L253.878 74.8965H249.065ZM240.459 62.049H244.78C246.349 62.049 247.496 61.6756 248.222 60.9288C248.972 60.1586 249.346 59.1551 249.346 57.9182C249.346 56.7047 248.983 55.7361 248.257 55.0127C247.531 54.2658 246.372 53.8924 244.78 53.8924H240.459V62.049Z" fill="white"/>
<path d="M259.783 74.8965V50.3918H263.998V60.5087L273.271 50.3918H278.505L269.407 60.1236L278.716 74.8965H273.588L266.422 63.3443L263.998 65.9698V74.8965H259.783Z" fill="white"/>
<path d="M267.267 37.6753L269.849 32.2668L271.14 29.5625H266.512L265.159 32.2668L262.455 37.6753H267.267Z" fill="white"/>
<path d="M85.5198 29.9785C89.0031 40.067 88.6374 51.0411 84.5097 60.8865C75.2268 83.0083 49.6247 93.4788 27.4362 84.2238C16.6903 79.7439 8.33048 71.357 3.90672 60.6087C-0.51704 49.8604 -0.482207 38.0355 4.02863 27.3218C13.3116 5.20006 38.9136 -5.27045 61.1021 3.98458L59.0818 8.79442C39.558 0.650684 17.0212 9.87099 8.85297 29.3361C4.89945 38.7647 4.86462 49.1658 8.74847 58.6292C12.6497 68.0926 19.9994 75.4723 29.4565 79.414C48.9803 87.5577 71.5171 78.3374 79.6853 58.8723C83.3254 50.2076 83.6389 40.5359 80.5736 31.6629L85.5198 29.9612V29.9785Z" fill="white"/>
<path d="M67.9967 65.1131C65.1854 68.3224 61.7002 70.938 57.6973 72.7758C50.2294 76.2108 41.8738 76.5477 34.1465 73.7167C26.4192 70.8857 20.2855 65.2318 16.8365 57.7915C13.3876 50.3513 13.0483 42.0272 15.8859 34.3466L20.7891 36.1376C18.4263 42.5267 18.7146 49.4321 21.5727 55.606C24.4309 61.7799 29.5472 66.4806 35.9437 68.8323C42.3402 71.184 49.2888 70.9007 55.4858 68.0542C61.6827 65.2077 66.4005 60.1114 68.7602 53.7394C71.1199 47.3674 70.8347 40.4449 67.9766 34.271C65.1184 28.0971 60.0021 23.3964 53.6056 21.0447C47.7059 18.8856 41.2546 18.9562 35.4032 21.2463L33.4792 16.3988C40.5119 13.6279 48.2924 13.5429 55.4028 16.1603C63.1129 18.9883 69.2638 24.6452 72.7128 32.0855C76.1617 39.5257 76.501 47.8498 73.6604 55.5475C72.3412 59.1233 70.4119 62.3457 67.9736 65.1443L67.9967 65.1131Z" fill="white"/>
<path fill-rule="evenodd" clip-rule="evenodd" d="M44.5813 31.9268C37.4931 31.9268 31.747 37.6534 31.747 44.7175C31.747 51.7816 37.4931 57.5081 44.5813 57.5081C51.6695 57.5081 57.4157 51.7816 57.4157 44.7175C57.4157 37.6534 51.6695 31.9268 44.5813 31.9268ZM26.6133 44.7175C26.6133 34.8278 34.6579 26.8105 44.5813 26.8105C54.5048 26.8105 62.5494 34.8278 62.5494 44.7175C62.5494 54.6072 54.5048 62.6244 44.5813 62.6244C34.6579 62.6244 26.6133 54.6072 26.6133 44.7175Z" fill="white"/>
</svg>
