<svg width="300" height="237" viewBox="0 0 300 237" fill="none" xmlns="http://www.w3.org/2000/svg">
<g opacity="0.5">
<path d="M150.134 69.9378C113.073 69.9378 83.029 100.012 83.029 137.111C83.029 174.21 113.073 204.284 150.134 204.284C187.195 204.284 217.238 174.21 217.238 137.111C217.238 100.012 187.195 69.9378 150.134 69.9378Z" stroke="white" stroke-width="0.6" stroke-miterlimit="10"/>
<path d="M119.892 159.734C51.7367 157.582 0.476894 148.291 0.476895 137.147C0.476896 124.418 67.4396 114.09 150.034 114.09C232.636 114.09 299.592 124.411 299.592 137.147C299.592 148.398 247.317 157.767 178.162 159.791" stroke="white" stroke-width="0.6" stroke-miterlimit="10"/>
<path d="M188.742 159.4L187.337 157.98" stroke="white" stroke-width="0.6" stroke-miterlimit="10"/>
<path d="M224.81 157.113L222.574 155.707" stroke="white" stroke-width="0.6" stroke-miterlimit="10"/>
<path d="M255.783 153.484L254.037 151.971" stroke="white" stroke-width="0.6" stroke-miterlimit="10"/>
<path d="M279.376 148.732L277.701 147.354" stroke="white" stroke-width="0.6" stroke-miterlimit="10"/>
<path d="M294.497 143.234L292.439 142.282" stroke="white" stroke-width="0.6" stroke-miterlimit="10"/>
<path d="M299.592 137.317L296.888 137.317" stroke="white" stroke-width="0.6" stroke-miterlimit="10"/>
<path d="M294.575 131.202L292.439 132.601" stroke="white" stroke-width="0.6" stroke-miterlimit="10"/>
<path d="M279.475 125.548L277.907 127.117" stroke="white" stroke-width="0.6" stroke-miterlimit="10"/>
<path d="M256.215 121.094L254.519 122.706" stroke="white" stroke-width="0.6" stroke-miterlimit="10"/>
<path d="M224.81 117.109L222.575 118.871" stroke="white" stroke-width="0.6" stroke-miterlimit="10"/>
<path d="M188.742 114.879L187.095 116.747" stroke="white" stroke-width="0.6" stroke-miterlimit="10"/>
<path d="M150.034 114.46L150.034 116.228" stroke="white" stroke-width="0.6" stroke-miterlimit="10"/>
<path d="M111.88 114.971L113.285 116.392" stroke="white" stroke-width="0.6" stroke-miterlimit="10"/>
<path d="M75.8127 117.258L78.0408 118.665" stroke="white" stroke-width="0.6" stroke-miterlimit="10"/>
<path d="M44.8323 120.888L46.585 122.401" stroke="white" stroke-width="0.6" stroke-miterlimit="10"/>
<path d="M21.2463 125.64L22.9209 127.018" stroke="white" stroke-width="0.6" stroke-miterlimit="10"/>
<path d="M6.12509 131.138L8.18286 132.082" stroke="white" stroke-width="0.6" stroke-miterlimit="10"/>
<path d="M1.03038 137.054L3.73389 137.054" stroke="white" stroke-width="0.6" stroke-miterlimit="10"/>
<path d="M6.04703 143.17L8.18286 141.771" stroke="white" stroke-width="0.6" stroke-miterlimit="10"/>
<path d="M21.1472 148.824L22.7153 147.247" stroke="white" stroke-width="0.6" stroke-miterlimit="10"/>
<path d="M44.4069 153.278L46.1028 151.665" stroke="white" stroke-width="0.6" stroke-miterlimit="10"/>
<path d="M75.8127 157.263L78.0408 155.501" stroke="white" stroke-width="0.6" stroke-miterlimit="10"/>
<path d="M111.88 159.493L113.527 157.625" stroke="white" stroke-width="0.6" stroke-miterlimit="10"/>
<path d="M133.78 169.049C133.93 168.979 133.995 168.801 133.925 168.651C133.855 168.5 133.676 168.435 133.526 168.505L133.78 169.049ZM33.3019 196.542L33.5695 196.406L33.5695 196.406L33.3019 196.542ZM266.76 77.9643L267.027 77.8287L267.027 77.8287L266.76 77.9643ZM183.151 143.509C183.006 143.589 182.953 143.771 183.032 143.916C183.112 144.062 183.294 144.115 183.44 144.035L183.151 143.509ZM133.526 168.505C133.371 168.578 133.216 168.65 133.061 168.722L133.314 169.266C133.469 169.194 133.624 169.122 133.78 169.049L133.526 168.505ZM129.364 170.432C129.058 170.572 128.752 170.713 128.446 170.853L128.695 171.398C129.002 171.258 129.308 171.118 129.615 170.977L129.364 170.432ZM124.732 172.539C124.425 172.678 124.117 172.816 123.811 172.954L124.057 173.501C124.363 173.363 124.671 173.225 124.979 173.086L124.732 172.539ZM120.086 174.614C119.777 174.75 119.469 174.886 119.161 175.022L119.403 175.571C119.711 175.435 120.019 175.299 120.328 175.163L120.086 174.614ZM115.425 176.653C115.115 176.788 114.805 176.921 114.496 177.055L114.734 177.605C115.043 177.472 115.353 177.338 115.663 177.204L115.425 176.653ZM110.748 178.656C110.437 178.788 110.127 178.919 109.817 179.05L110.05 179.603C110.36 179.472 110.671 179.341 110.982 179.209L110.748 178.656ZM106.056 180.62C105.744 180.749 105.433 180.878 105.122 181.006L105.351 181.56C105.661 181.432 105.973 181.304 106.285 181.175L106.056 180.62ZM101.348 182.543C101.035 182.669 100.723 182.794 100.412 182.919L100.635 183.476C100.947 183.351 101.259 183.225 101.572 183.099L101.348 182.543ZM96.6227 184.42C96.3094 184.542 95.9969 184.664 95.6853 184.786L95.9029 185.345C96.215 185.223 96.5278 185.101 96.8415 184.978L96.6227 184.42ZM91.8815 186.248C91.5632 186.368 91.246 186.488 90.9296 186.607L91.1412 187.169C91.4579 187.05 91.7756 186.929 92.0942 186.809L91.8815 186.248ZM87.1205 188.022C86.7972 188.14 86.4749 188.258 86.1537 188.374L86.3585 188.938C86.6801 188.822 87.0029 188.704 87.3267 188.586L87.1205 188.022ZM82.3242 189.742C82.0011 189.856 81.6793 189.968 81.3587 190.08L81.5559 190.647C81.877 190.535 82.1994 190.422 82.523 190.309L82.3242 189.742ZM77.5088 191.394C77.1868 191.502 76.8662 191.609 76.5471 191.714L76.7356 192.284C77.0554 192.178 77.3766 192.071 77.6992 191.963L77.5088 191.394ZM72.6787 192.966C72.3579 193.067 72.0387 193.167 71.721 193.266L71.8996 193.839C72.2179 193.74 72.5378 193.64 72.8593 193.538L72.6787 192.966ZM67.8223 194.448C67.4915 194.545 67.1627 194.641 66.8359 194.735L67.0024 195.311C67.3301 195.217 67.6598 195.121 67.9914 195.023L67.8223 194.448ZM62.9193 195.825C62.5936 195.912 62.2701 195.998 61.9489 196.082L62.1007 196.662C62.4229 196.578 62.7475 196.492 63.0742 196.405L62.9193 195.825ZM58.0008 197.062C57.6649 197.141 57.332 197.218 57.002 197.293L57.1347 197.878C57.4661 197.803 57.8005 197.726 58.1378 197.647L58.0008 197.062ZM53.0416 198.123C52.7017 198.188 52.3656 198.251 52.0334 198.311L52.14 198.901C52.4743 198.841 52.8124 198.778 53.1543 198.713L53.0416 198.123ZM48.0337 198.936C47.6903 198.98 47.3522 199.021 47.0195 199.059L47.0869 199.655C47.4229 199.617 47.7642 199.576 48.1107 199.531L48.0337 198.936ZM42.9917 199.356C42.6448 199.366 42.3064 199.371 41.9767 199.37L41.9754 199.97C42.3114 199.971 42.6558 199.966 43.0083 199.956L42.9917 199.356ZM37.9926 199.033C37.6517 198.966 37.3286 198.89 37.0233 198.804L36.8607 199.382C37.1832 199.472 37.5223 199.552 37.8778 199.621L37.9926 199.033ZM33.8083 196.808C33.7196 196.679 33.64 196.545 33.5695 196.406L33.0343 196.677C33.117 196.841 33.2103 196.997 33.314 197.148L33.8083 196.808ZM33.5695 196.406C33.5002 196.269 33.4406 196.128 33.3906 195.982L32.8229 196.176C32.8818 196.348 32.9523 196.516 33.0343 196.677L33.5695 196.406ZM33.7284 192.251C33.8417 191.959 33.973 191.657 34.1223 191.347L33.5817 191.087C33.4262 191.41 33.2885 191.726 33.1689 192.035L33.7284 192.251ZM36.2071 187.974C36.3996 187.711 36.6011 187.445 36.8114 187.175L36.3381 186.806C36.1245 187.081 35.9195 187.351 35.7234 187.619L36.2071 187.974ZM39.4096 184.13C39.6361 183.884 39.8684 183.636 40.1065 183.385L39.6714 182.972C39.4312 183.225 39.1968 183.475 38.9682 183.724L39.4096 184.13ZM42.9364 180.554C43.1807 180.32 43.4291 180.085 43.6818 179.848L43.2716 179.41C43.0175 179.648 42.7676 179.885 42.5219 180.12L42.9364 180.554ZM46.6503 177.162C46.9009 176.942 47.1548 176.721 47.4118 176.499L47.0195 176.045C46.7614 176.268 46.5065 176.49 46.2547 176.711L46.6503 177.162ZM50.5046 173.895C50.7577 173.687 51.0133 173.478 51.2713 173.269L50.8929 172.803C50.634 173.014 50.3776 173.223 50.1237 173.432L50.5046 173.895ZM54.4201 170.762C54.6843 170.555 54.9507 170.348 55.2193 170.14L54.8521 169.666C54.5829 169.874 54.3158 170.082 54.0508 170.289L54.4201 170.762ZM58.4301 167.698C58.6977 167.498 58.9672 167.297 59.2385 167.095L58.8808 166.613C58.6089 166.815 58.3388 167.017 58.0706 167.217L58.4301 167.698ZM62.4885 164.716C62.7575 164.522 63.0281 164.327 63.3003 164.132L62.9506 163.645C62.678 163.84 62.4069 164.035 62.1373 164.23L62.4885 164.716ZM66.59 161.803C66.8645 161.611 67.1404 161.419 67.4177 161.226L67.0752 160.733C66.7974 160.926 66.5211 161.119 66.2461 161.311L66.59 161.803ZM70.739 158.943C71.0179 158.753 71.298 158.564 71.5794 158.373L71.2433 157.876C70.9615 158.067 70.681 158.257 70.4017 158.447L70.739 158.943ZM74.9268 156.133C75.209 155.946 75.4924 155.759 75.777 155.571L75.4467 155.07C75.1618 155.258 74.878 155.446 74.5954 155.633L74.9268 156.133ZM79.1471 153.37C79.4283 153.188 79.7106 153.006 79.9939 152.824L79.6689 152.319C79.3853 152.502 79.1027 152.684 78.8212 152.866L79.1471 153.37ZM83.3956 150.652C83.6765 150.474 83.9584 150.296 84.2412 150.117L83.9213 149.61C83.6381 149.788 83.3559 149.966 83.0746 150.145L83.3956 150.652ZM87.6658 147.976C87.9482 147.801 88.2315 147.626 88.5156 147.45L88.2003 146.94C87.9159 147.116 87.6323 147.291 87.3496 147.466L87.6658 147.976ZM91.9592 145.34C92.2435 145.167 92.5286 144.994 92.8145 144.821L92.5036 144.308C92.2174 144.481 91.932 144.654 91.6474 144.827L91.9592 145.34ZM96.2758 142.739C96.5618 142.569 96.8485 142.398 97.1359 142.227L96.8291 141.711C96.5415 141.882 96.2545 142.053 95.9683 142.224L96.2758 142.739ZM100.614 140.173C100.901 140.004 101.189 139.836 101.478 139.667L101.175 139.149C100.886 139.318 100.598 139.487 100.311 139.655L100.614 140.173ZM104.972 137.639C105.261 137.473 105.55 137.306 105.84 137.14L105.541 136.62C105.251 136.786 104.962 136.953 104.673 137.119L104.972 137.639ZM109.348 135.138C109.638 134.974 109.929 134.809 110.221 134.644L109.926 134.122C109.634 134.287 109.343 134.452 109.052 134.616L109.348 135.138ZM113.739 132.67C113.887 132.587 114.035 132.505 114.183 132.423L113.891 131.898C113.743 131.981 113.595 132.063 113.447 132.146L113.739 132.67ZM183.44 144.035C183.586 143.955 183.732 143.875 183.878 143.795L183.589 143.269C183.444 143.349 183.298 143.429 183.151 143.509L183.44 144.035ZM187.355 141.876C187.642 141.716 187.929 141.557 188.215 141.397L187.923 140.873C187.637 141.033 187.35 141.192 187.063 141.352L187.355 141.876ZM191.684 139.452C191.971 139.29 192.257 139.129 192.543 138.967L192.247 138.445C191.962 138.606 191.676 138.768 191.389 138.93L191.684 139.452ZM195.995 136.999C196.282 136.835 196.567 136.671 196.852 136.507L196.553 135.987C196.268 136.151 195.983 136.315 195.697 136.479L195.995 136.999ZM200.288 134.516C200.574 134.349 200.859 134.183 201.143 134.016L200.84 133.498C200.556 133.665 200.271 133.831 199.986 133.997L200.288 134.516ZM204.562 132C204.847 131.831 205.131 131.662 205.414 131.493L205.106 130.978C204.824 131.146 204.54 131.315 204.256 131.484L204.562 132ZM208.816 129.45C209.1 129.279 209.382 129.108 209.664 128.937L209.353 128.424C209.071 128.595 208.789 128.766 208.506 128.937L208.816 129.45ZM213.049 126.865C213.331 126.692 213.612 126.518 213.892 126.344L213.576 125.834C213.297 126.007 213.016 126.181 212.734 126.355L213.049 126.865ZM217.259 124.243C217.539 124.066 217.818 123.89 218.097 123.714L217.776 123.207C217.498 123.383 217.219 123.559 216.939 123.735L217.259 124.243ZM221.444 121.58C221.722 121.4 221.999 121.222 222.275 121.043L221.95 120.539C221.674 120.718 221.397 120.896 221.119 121.075L221.444 121.58ZM225.601 118.873C225.876 118.692 226.151 118.51 226.424 118.329L226.093 117.829C225.82 118.01 225.546 118.191 225.271 118.372L225.601 118.873ZM229.726 116.121C229.998 115.937 230.27 115.753 230.54 115.569L230.202 115.073C229.933 115.256 229.662 115.44 229.39 115.624L229.726 116.121ZM233.813 113.319C234.084 113.131 234.353 112.944 234.62 112.756L234.276 112.265C234.009 112.452 233.741 112.639 233.471 112.827L233.813 113.319ZM237.857 110.463C238.131 110.267 238.403 110.071 238.674 109.875L238.322 109.389C238.052 109.584 237.781 109.78 237.507 109.976L237.857 110.463ZM241.876 107.527C242.144 107.328 242.41 107.129 242.674 106.931L242.314 106.451C242.05 106.649 241.785 106.847 241.518 107.046L241.876 107.527ZM245.83 104.523C246.09 104.322 246.348 104.121 246.604 103.92L246.234 103.448C245.979 103.648 245.722 103.848 245.462 104.049L245.83 104.523ZM249.702 101.443C249.965 101.229 250.225 101.015 250.482 100.803L250.1 100.34C249.843 100.552 249.584 100.765 249.323 100.979L249.702 101.443ZM253.515 98.2334C253.764 98.0171 254.009 97.8018 254.252 97.5877L253.854 97.138C253.613 97.3511 253.369 97.5654 253.121 97.7808L253.515 98.2334ZM257.196 94.9004C257.44 94.6691 257.68 94.4393 257.917 94.2111L257.5 93.7796C257.265 94.0063 257.026 94.2347 256.783 94.4646L257.196 94.9004ZM260.707 91.3837C260.94 91.1351 261.167 90.8886 261.388 90.6444L260.943 90.2415C260.724 90.4833 260.5 90.7274 260.269 90.9738L260.707 91.3837ZM263.949 87.5839C264.152 87.3168 264.347 87.053 264.533 86.7926L264.045 86.4434C263.862 86.6989 263.671 86.958 263.471 87.2207L263.949 87.5839ZM266.596 83.3322C266.74 83.0173 266.867 82.7089 266.977 82.4072L266.413 82.2022C266.309 82.4875 266.189 82.7811 266.051 83.0827L266.596 83.3322ZM267.237 78.3193C267.177 78.1511 267.108 77.9875 267.027 77.8287L266.492 78.1C266.561 78.2351 266.62 78.3745 266.67 78.5181L267.237 78.3193ZM267.027 77.8287C266.945 77.6671 266.853 77.5117 266.749 77.3624L266.256 77.7043C266.344 77.8312 266.423 77.9631 266.492 78.1L267.027 77.8287ZM263.215 75.1648C262.9 75.0773 262.57 75 262.224 74.9325L262.109 75.5214C262.441 75.5861 262.756 75.6599 263.054 75.7428L263.215 75.1648ZM258.144 74.5769C257.819 74.5751 257.486 74.578 257.146 74.5858L257.16 75.1856C257.495 75.178 257.822 75.1751 258.141 75.1769L258.144 74.5769ZM253.098 74.8612C252.765 74.8967 252.428 74.9354 252.085 74.9774L252.158 75.5729C252.498 75.5313 252.832 75.493 253.161 75.4578L253.098 74.8612ZM248.087 75.5736C247.759 75.6303 247.427 75.6895 247.092 75.751L247.2 76.3411C247.533 76.28 247.863 76.2212 248.189 76.1648L248.087 75.5736ZM243.113 76.5536C242.792 76.6236 242.469 76.6955 242.143 76.7692L242.276 77.3544C242.6 77.281 242.922 77.2095 243.241 77.1397L243.113 76.5536ZM238.216 77.7113C237.888 77.7942 237.557 77.8787 237.225 77.9648L237.375 78.5457C237.707 78.4599 238.036 78.3757 238.363 78.293L238.216 77.7113ZM233.321 79.0178C233.004 79.1067 232.685 79.1969 232.364 79.2883L232.529 79.8653C232.849 79.7741 233.167 79.6842 233.483 79.5956L233.321 79.0178ZM228.493 80.427C228.172 80.524 227.85 80.6222 227.527 80.7215L227.703 81.2951C228.025 81.196 228.347 81.098 228.666 81.0012L228.493 80.427ZM223.676 81.9336C223.353 82.0374 223.03 82.1423 222.705 82.2482L222.891 82.8187C223.215 82.7129 223.538 82.6083 223.86 82.5047L223.676 81.9336ZM218.877 83.5217C218.56 83.6293 218.242 83.7379 217.922 83.8473L218.117 84.4149C218.436 84.3057 218.753 84.1973 219.07 84.0899L218.877 83.5217ZM214.108 85.1772C213.795 85.288 213.482 85.3995 213.168 85.5119L213.37 86.0769C213.683 85.9647 213.996 85.8533 214.308 85.7427L214.108 85.1772ZM209.37 86.8902C209.058 87.0052 208.745 87.1211 208.431 87.2376L208.639 87.8002C208.953 87.6838 209.266 87.5681 209.578 87.4532L209.37 86.8902ZM204.651 88.6593C204.339 88.7782 204.026 88.8978 203.712 89.0181L203.927 89.5783C204.24 89.4582 204.553 89.3387 204.864 89.22L204.651 88.6593ZM199.948 90.4794C199.637 90.6017 199.325 90.7247 199.012 90.8483L199.233 91.4063C199.545 91.2828 199.857 91.16 200.168 91.0378L199.948 90.4794ZM195.264 92.3463C194.953 92.4717 194.642 92.5977 194.331 92.7243L194.556 93.2802C194.868 93.1537 195.178 93.0279 195.489 92.9026L195.264 92.3463ZM190.596 94.2566C190.287 94.3848 189.977 94.5136 189.666 94.6429L189.897 95.1968C190.207 95.0676 190.517 94.939 190.826 94.8109L190.596 94.2566ZM185.945 96.2077C185.637 96.3385 185.328 96.4699 185.019 96.6017L185.255 97.1536C185.563 97.0219 185.872 96.8907 186.18 96.7601L185.945 96.2077ZM181.31 98.1975C181.003 98.3307 180.696 98.4644 180.388 98.5986L180.628 99.1486C180.935 99.0145 181.242 98.881 181.549 98.7479L181.31 98.1975ZM176.69 100.224C176.385 100.36 176.079 100.495 175.772 100.632L176.016 101.18C176.323 101.044 176.628 100.908 176.934 100.773L176.69 100.224ZM172.086 102.286C171.781 102.424 171.477 102.562 171.172 102.7L171.42 103.246C171.725 103.108 172.029 102.97 172.333 102.833L172.086 102.286ZM167.495 104.382C167.192 104.522 166.889 104.662 166.585 104.802L166.837 105.347C167.141 105.206 167.444 105.066 167.746 104.927L167.495 104.382ZM162.926 106.508C162.773 106.579 162.62 106.651 162.466 106.724L162.722 107.267C162.875 107.194 163.028 107.123 163.181 107.051L162.926 106.508Z" fill="white"/>
<path d="M66.6167 187.329C62.8898 187.329 59.8686 190.353 59.8686 194.084C59.8686 197.815 62.8898 200.839 66.6167 200.839C70.3435 200.839 73.3647 197.815 73.3647 194.084C73.3647 190.353 70.3435 187.329 66.6167 187.329Z" stroke="white" stroke-width="0.6" stroke-miterlimit="10"/>
<path d="M64.1542 200.363L69.0645 187.798" stroke="white" stroke-width="0.6" stroke-miterlimit="10"/>
<path d="M227.719 74.4416C223.992 74.4416 220.971 77.4659 220.971 81.1965C220.971 84.9272 223.992 87.9515 227.719 87.9515C231.446 87.9515 234.467 84.9272 234.467 81.1965C234.467 77.4659 231.446 74.4416 227.719 74.4416Z" stroke="white" stroke-width="0.6" stroke-miterlimit="10"/>
<path d="M225.257 87.4755L230.167 74.9032" stroke="white" stroke-width="0.6" stroke-miterlimit="10"/>
<path d="M199.698 226.026L167.806 172.258" stroke="white" stroke-width="0.6" stroke-miterlimit="10"/>
<path d="M128.151 104.494L72.5061 10.6915" stroke="white" stroke-width="0.6" stroke-miterlimit="10"/>
<path d="M205.921 236.851L201.273 229.052" stroke="white" stroke-width="0.6" stroke-miterlimit="10"/>
<path d="M199.698 235.281L207.496 230.629" stroke="white" stroke-width="0.6" stroke-miterlimit="10"/>
<path d="M71.1365 8.65295L66.4887 0.85385" stroke="white" stroke-width="0.6" stroke-miterlimit="10"/>
<path d="M64.9208 7.08313L72.7119 2.43065" stroke="white" stroke-width="0.6" stroke-miterlimit="10"/>
<path d="M98.0296 10.5209C86.8804 10.5209 77.8421 19.5684 77.8421 30.729C77.8421 41.8896 86.8804 50.937 98.0296 50.937C109.179 50.937 118.217 41.8896 118.217 30.729C118.217 19.5684 109.179 10.5209 98.0296 10.5209Z" stroke="white" stroke-width="0.6" stroke-linejoin="round" stroke-dasharray="1 4"/>
<path d="M91.4517 33.457C87.0586 33.457 83.4973 37.0219 83.4973 41.4195C83.4973 45.817 87.0586 49.382 91.4517 49.382C95.8447 49.382 99.406 45.817 99.406 41.4195C99.406 37.022 95.8447 33.457 91.4517 33.457Z" stroke="white" stroke-width="0.6" stroke-miterlimit="10"/>
<path d="M113.827 138.376C113.827 119.839 129.407 104.794 148.649 104.794C167.891 104.794 183.471 119.839 183.471 138.376C183.471 156.913 167.891 171.958 148.649 171.958C129.407 171.958 113.827 156.913 113.827 138.376Z" stroke="white" stroke-width="0.6"/>
<path d="M127.895 138.376C127.895 127.335 137.176 118.365 148.649 118.365C160.122 118.365 169.404 127.335 169.404 138.376C169.404 149.418 160.122 158.387 148.649 158.387C137.176 158.387 127.895 149.418 127.895 138.376Z" stroke="white" stroke-width="0.6"/>
<path d="M148.609 127.746C142.791 127.746 138.074 132.531 138.074 138.434C138.074 144.336 142.791 149.122 148.609 149.122C154.428 149.122 159.145 144.336 159.145 138.434C159.145 132.531 154.428 127.746 148.609 127.746Z" stroke="white" stroke-width="0.6" stroke-miterlimit="10" stroke-dasharray="1 4"/>
<path d="M148.609 123.713C140.596 123.713 134.099 130.304 134.099 138.433C134.099 146.563 140.596 153.154 148.609 153.154C156.623 153.154 163.119 146.563 163.119 138.433C163.119 130.304 156.623 123.713 148.609 123.713Z" stroke="white" stroke-width="0.6" stroke-linecap="round" stroke-linejoin="round"/>
<path d="M148.609 140.965L148.609 135.906" stroke="white" stroke-width="0.6" stroke-miterlimit="10"/>
<path d="M146.114 138.434L151.105 138.434" stroke="white" stroke-width="0.6" stroke-miterlimit="10"/>
</g>
</svg>
