<svg width="681" height="45" viewBox="0 0 681 45" fill="none" xmlns="http://www.w3.org/2000/svg">
<g style="mix-blend-mode:screen">
<path d="M594.527 38.4457L594.527 22.1821" stroke="#6B6B6B" stroke-opacity="0.77" stroke-miterlimit="10"/>
<path d="M604.7 34.7251L604.7 22.1821" stroke="#6B6B6B" stroke-opacity="0.77" stroke-miterlimit="10"/>
<path d="M584.353 44.7877L584.353 22.1821" stroke="#6B6B6B" stroke-opacity="0.77" stroke-miterlimit="10"/>
<path d="M584.381 44.4208L546.716 1.32373" stroke="#6B6B6B" stroke-opacity="0.77" stroke-miterlimit="10"/>
<path d="M571.121 44.4208L533.456 1.32373" stroke="#6B6B6B" stroke-opacity="0.77" stroke-miterlimit="10"/>
<path d="M523.282 7.27148L523.282 23.5351" stroke="#6B6B6B" stroke-opacity="0.77" stroke-miterlimit="10"/>
<path d="M513.109 10.9922L513.109 23.5352" stroke="#6B6B6B" stroke-opacity="0.77" stroke-miterlimit="10"/>
<path d="M533.456 0.929688L533.456 23.5352" stroke="#6B6B6B" stroke-opacity="0.77" stroke-miterlimit="10"/>
<path d="M495.458 38.4457L495.458 22.1821" stroke="#6B6B6B" stroke-opacity="0.77" stroke-miterlimit="10"/>
<path d="M505.631 34.7251L505.631 22.1821" stroke="#6B6B6B" stroke-opacity="0.77" stroke-miterlimit="10"/>
<path d="M485.284 44.7877L485.284 22.1821" stroke="#6B6B6B" stroke-opacity="0.77" stroke-miterlimit="10"/>
<path d="M485.312 44.4208L447.647 1.32373" stroke="#6B6B6B" stroke-opacity="0.77" stroke-miterlimit="10"/>
<path d="M472.052 44.4208L434.387 1.32373" stroke="#6B6B6B" stroke-opacity="0.77" stroke-miterlimit="10"/>
<path d="M424.214 7.27148L424.214 23.5351" stroke="#6B6B6B" stroke-opacity="0.77" stroke-miterlimit="10"/>
<path d="M414.04 10.9922L414.04 23.5352" stroke="#6B6B6B" stroke-opacity="0.77" stroke-miterlimit="10"/>
<path d="M434.387 0.929688L434.387 23.5352" stroke="#6B6B6B" stroke-opacity="0.77" stroke-miterlimit="10"/>
<path d="M396.389 38.4457L396.389 22.1821" stroke="#6B6B6B" stroke-opacity="0.77" stroke-miterlimit="10"/>
<path d="M406.563 34.7251L406.563 22.1821" stroke="#6B6B6B" stroke-opacity="0.77" stroke-miterlimit="10"/>
<path d="M386.215 44.7877L386.215 22.1821" stroke="#6B6B6B" stroke-opacity="0.77" stroke-miterlimit="10"/>
<path d="M386.243 44.4208L348.578 1.32373" stroke="#6B6B6B" stroke-opacity="0.77" stroke-miterlimit="10"/>
<path d="M372.984 44.4208L335.319 1.32373" stroke="#6B6B6B" stroke-opacity="0.77" stroke-miterlimit="10"/>
<path d="M325.145 7.27148L325.145 23.5351" stroke="#6B6B6B" stroke-opacity="0.77" stroke-miterlimit="10"/>
<path d="M314.971 10.9922L314.971 23.5352" stroke="#6B6B6B" stroke-opacity="0.77" stroke-miterlimit="10"/>
<path d="M335.319 0.929688L335.319 23.5352" stroke="#6B6B6B" stroke-opacity="0.77" stroke-miterlimit="10"/>
<path d="M297.32 38.4457L297.32 22.1821" stroke="#6B6B6B" stroke-opacity="0.77" stroke-miterlimit="10"/>
<path d="M307.494 34.7251L307.494 22.1821" stroke="#6B6B6B" stroke-opacity="0.77" stroke-miterlimit="10"/>
<path d="M287.146 44.7877L287.146 22.1821" stroke="#6B6B6B" stroke-opacity="0.77" stroke-miterlimit="10"/>
<path d="M287.174 44.4208L249.509 1.32373" stroke="#6B6B6B" stroke-opacity="0.77" stroke-miterlimit="10"/>
<path d="M273.915 44.4208L236.25 1.32373" stroke="#6B6B6B" stroke-opacity="0.77" stroke-miterlimit="10"/>
<path d="M226.076 7.27148L226.076 23.5351" stroke="#6B6B6B" stroke-opacity="0.77" stroke-miterlimit="10"/>
<path d="M215.902 10.9922L215.902 23.5352" stroke="#6B6B6B" stroke-opacity="0.77" stroke-miterlimit="10"/>
<path d="M236.25 0.929688L236.25 23.5352" stroke="#6B6B6B" stroke-opacity="0.77" stroke-miterlimit="10"/>
<path d="M198.251 38.4457L198.251 22.1821" stroke="#6B6B6B" stroke-opacity="0.77" stroke-miterlimit="10"/>
<path d="M208.425 34.7251L208.425 22.1821" stroke="#6B6B6B" stroke-opacity="0.77" stroke-miterlimit="10"/>
<path d="M188.078 44.7877L188.078 22.1821" stroke="#6B6B6B" stroke-opacity="0.77" stroke-miterlimit="10"/>
<path d="M188.105 44.4208L150.44 1.32373" stroke="#6B6B6B" stroke-opacity="0.77" stroke-miterlimit="10"/>
<path d="M174.846 44.4208L137.181 1.32373" stroke="#6B6B6B" stroke-opacity="0.77" stroke-miterlimit="10"/>
<path d="M127.008 7.27148L127.008 23.5351" stroke="#6B6B6B" stroke-opacity="0.77" stroke-miterlimit="10"/>
<path d="M116.834 10.9922L116.834 23.5352" stroke="#6B6B6B" stroke-opacity="0.77" stroke-miterlimit="10"/>
<path d="M137.181 0.929688L137.181 23.5352" stroke="#6B6B6B" stroke-opacity="0.77" stroke-miterlimit="10"/>
<path d="M99.1821 38.4457L99.1821 22.1821" stroke="#6B6B6B" stroke-opacity="0.77" stroke-miterlimit="10"/>
<path d="M109.356 34.7251L109.356 22.1821" stroke="#6B6B6B" stroke-opacity="0.77" stroke-miterlimit="10"/>
<path d="M89.0083 44.7877L89.0083 22.1821" stroke="#6B6B6B" stroke-opacity="0.77" stroke-miterlimit="10"/>
<path d="M89.0361 44.4208L51.371 1.32373" stroke="#6B6B6B" stroke-opacity="0.77" stroke-miterlimit="10"/>
<path d="M75.7766 44.4208L38.1116 1.32373" stroke="#6B6B6B" stroke-opacity="0.77" stroke-miterlimit="10"/>
<path d="M27.938 7.27148L27.938 23.5351" stroke="#6B6B6B" stroke-opacity="0.77" stroke-miterlimit="10"/>
<path d="M17.7646 10.9922L17.7646 23.5352" stroke="#6B6B6B" stroke-opacity="0.77" stroke-miterlimit="10"/>
<path d="M38.1118 0.929688L38.1118 23.5352" stroke="#6B6B6B" stroke-opacity="0.77" stroke-miterlimit="10"/>
<path d="M632.192 22.8589L680.336 22.8589" stroke="#6B6B6B" stroke-opacity="0.77" stroke-miterlimit="10"/>
</g>
</svg>
